<?xml version="1.0" encoding="utf-8"?>
<!-- Generator: Adobe Illustrator 17.1.0, SVG Export Plug-In . SVG Version: 6.00 Build 0)  -->
<!DOCTYPE svg PUBLIC "-//W3C//DTD SVG 1.1//EN" "http://www.w3.org/Graphics/SVG/1.1/DTD/svg11.dtd">
<svg version="1.1" id="Layer_1" xmlns="http://www.w3.org/2000/svg" xmlns:xlink="http://www.w3.org/1999/xlink" x="0px" y="0px"
	 viewBox="0 0 35 23" enable-background="new 0 0 35 23" xml:space="preserve">
<g>
	<polygon fill="#99CCCC" points="17.2,8.1 17.2,8.1 17.3,8.2 17.3,8.2 17.3,8.2 17.3,8.2 17.3,8.1 17.3,8.1 17.3,8 17.3,8 17.3,8.1 
		17.3,8.1 17.3,8.1 17.3,8.1 	"/>
	<polygon fill="#99CCCC" points="17.1,8.1 17.1,8.1 17.1,8.2 17.1,8.2 17.2,8.2 17.2,8.1 	"/>
	<polygon fill="#99CCCC" points="17.2,8.3 17.3,8.3 17.3,8.2 17.2,8.2 17.2,8.2 17.2,8.3 	"/>
	<polygon fill="#99CCCC" points="15.6,7.9 15.5,7.9 15.6,8 15.6,7.9 15.6,8 15.6,8.1 15.6,8.2 15.6,8.1 15.7,8.1 15.7,8.1 15.7,8.1 
		15.6,8.2 15.7,8.3 15.7,8.2 15.8,8.2 15.8,8.2 15.8,8.3 15.8,8.3 15.8,8.4 15.8,8.4 15.8,8.4 15.8,8.5 15.8,8.5 15.8,8.5 15.7,8.5 
		15.7,8.5 15.7,8.5 15.7,8.5 15.7,8.6 15.6,8.7 15.6,8.7 15.7,8.7 15.7,8.7 15.8,8.8 15.9,8.7 15.8,8.8 15.7,8.8 15.7,8.8 15.6,8.9 
		15.6,8.9 15.6,9 15.7,8.9 15.8,8.9 15.8,8.9 15.8,8.9 15.9,8.9 16,8.8 16.1,8.8 16.1,8.9 16.2,8.8 16.3,8.8 16.2,8.7 16.2,8.7 
		16.2,8.7 16.3,8.7 16.3,8.6 16.2,8.5 16.2,8.5 16.2,8.6 16.1,8.5 16.2,8.5 16.1,8.4 16.1,8.4 16.1,8.4 16,8.3 16,8.2 15.9,8.1 
		15.8,8.1 15.8,8 15.8,8 15.9,8 15.8,8 15.9,7.9 16,7.8 15.9,7.8 15.8,7.8 15.7,7.8 15.8,7.8 15.8,7.7 15.8,7.7 15.8,7.6 15.8,7.7 
		15.7,7.6 15.6,7.7 15.6,7.7 15.6,7.8 15.6,7.8 15.6,7.8 15.6,7.8 	"/>
	<polygon fill="#99CCCC" points="15.5,7.8 15.5,7.8 15.5,7.7 15.5,7.7 15.5,7.7 15.5,7.7 15.5,7.7 15.5,7.7 15.5,7.7 15.4,7.7 
		15.5,7.8 15.4,7.8 	"/>
	<polygon fill="#99CCCC" points="16,7.4 16,7.4 16,7.3 16,7.3 16,7.3 16,7.4 	"/>
	<polygon fill="#99CCCC" points="15.5,7 15.5,7 15.5,7 15.5,7.1 	"/>
	<polygon fill="#99CCCC" points="15.8,7.6 15.8,7.5 15.8,7.6 15.8,7.6 	"/>
	<polygon fill="#99CCCC" points="15.4,7.8 15.4,7.8 15.4,7.8 	"/>
	<polygon fill="#99CCCC" points="15.3,8.2 15.3,8.2 15.3,8.3 15.3,8.3 15.3,8.3 15.3,8.3 15.3,8.3 15.2,8.3 15.2,8.3 15.1,8.3 
		15.1,8.4 15.2,8.4 15.2,8.4 15.2,8.4 15.2,8.4 15.1,8.4 15.2,8.5 15.2,8.5 15.2,8.5 15.2,8.5 15.2,8.6 15.2,8.6 15.2,8.5 15.3,8.6 
		15.2,8.6 15.2,8.6 15.2,8.6 15.2,8.6 15.1,8.6 15.1,8.6 15.1,8.6 15.1,8.7 15.1,8.7 15.2,8.7 15.1,8.7 15.2,8.7 15.2,8.7 15.3,8.7 
		15.3,8.7 15.3,8.7 15.4,8.7 15.4,8.6 15.5,8.6 15.5,8.6 15.5,8.6 15.5,8.5 15.5,8.5 15.5,8.5 15.5,8.5 15.5,8.4 15.5,8.4 15.5,8.4 
		15.5,8.4 15.6,8.3 15.6,8.3 15.6,8.3 15.6,8.2 15.5,8.2 15.5,8.2 15.5,8.2 15.4,8.2 15.4,8.2 15.4,8.1 15.4,8.2 	"/>
	<polygon fill="#99CCCC" points="14.1,6.7 14.1,6.7 14.3,6.7 14.3,6.7 14.5,6.8 14.5,6.8 14.6,6.7 14.7,6.7 14.8,6.6 14.8,6.6 
		14.9,6.6 14.9,6.6 14.9,6.5 14.9,6.5 14.9,6.4 14.9,6.4 14.8,6.4 14.9,6.3 14.8,6.3 14.9,6.2 14.8,6.3 14.8,6.2 14.7,6.2 14.7,6.3 
		14.7,6.3 14.6,6.3 14.6,6.3 14.5,6.3 14.6,6.3 14.5,6.3 14.5,6.3 14.4,6.3 14.4,6.3 14.4,6.4 14.4,6.3 14.4,6.3 14.4,6.4 14.3,6.4 
		14.3,6.4 14.3,6.4 14.3,6.4 14.3,6.3 14.2,6.2 14.1,6.2 14.2,6.3 14.1,6.3 14.1,6.3 14.1,6.3 14.1,6.3 14.1,6.3 14.1,6.4 14,6.3 
		14,6.4 14.1,6.4 14.1,6.4 14.2,6.4 14.2,6.4 14.2,6.5 14.2,6.5 14.2,6.5 14.1,6.5 14,6.5 14,6.5 14.2,6.5 14.2,6.6 14.2,6.6 
		14.1,6.7 	"/>
	<polygon fill="#99CCCC" points="17.7,10.5 17.6,10.6 17.5,10.5 17.5,10.5 17.5,10.6 17.4,10.5 17.4,10.6 17.4,10.6 17.5,10.6 
		17.6,10.7 17.6,10.7 17.6,10.7 17.7,10.7 17.7,10.7 17.7,10.6 17.7,10.6 	"/>
	<polygon fill="#99CCCC" points="17,10.2 17,10.3 17,10.3 17,10.3 17,10.4 17,10.4 17,10.4 17.1,10.4 17.1,10.4 17.1,10.3 
		17.1,10.3 17.1,10.3 17.1,10.2 17.1,10.2 17,10.2 17,10.2 	"/>
	<polygon fill="#99CCCC" points="17.6,10.8 17.6,10.8 17.6,10.9 	"/>
	<polygon fill="#99CCCC" points="17.5,6 17.5,5.9 17.5,5.9 17.6,5.9 17.5,5.9 17.5,5.9 17.5,5.9 17.4,5.9 	"/>
	<polygon fill="#99CCCC" points="17.4,5.9 17.4,5.9 17.4,5.8 17.4,5.9 17.4,5.9 17.4,5.9 17.4,5.9 	"/>
	<polygon fill="#99CCCC" points="17.4,5.9 17.4,5.9 17.4,5.9 	"/>
	<polygon fill="#99CCCC" points="17.9,7.8 17.8,7.8 17.9,7.9 17.9,7.8 17.9,7.8 17.9,7.8 17.9,7.8 	"/>
	<polygon fill="#99CCCC" points="17.6,8.2 17.6,8.2 17.6,8.2 17.6,8.2 	"/>
	<polygon fill="#99CCCC" points="16.5,10.4 16.5,10.4 16.5,10.3 16.5,10.3 16.4,10.3 16.4,10.4 16.4,10.4 16.4,10.4 16.4,10.4 	"/>
	<polygon fill="#99CCCC" points="16.5,10.3 16.6,10.3 16.6,10.3 	"/>
	<polygon fill="#99CCCC" points="16.2,10.4 16.3,10.5 16.3,10.4 	"/>
	<polygon fill="#99CCCC" points="19.6,10.9 19.6,10.9 19.6,10.9 19.5,10.9 19.5,10.9 19.5,11 19.5,11 19.6,11 19.6,11 19.6,11 
		19.7,10.9 19.7,11 19.7,10.9 19.7,10.9 	"/>
	<polygon fill="#99CCCC" points="18.7,10.9 18.6,10.9 18.6,10.9 18.6,10.9 18.6,10.9 18.6,10.9 18.6,10.9 18.7,10.9 18.7,11 
		18.9,10.9 18.9,10.9 18.8,10.9 18.8,10.9 	"/>
	<polygon fill="#99CCCC" points="18.7,10.6 18.7,10.5 18.6,10.5 18.6,10.5 18.6,10.5 18.5,10.4 18.5,10.4 18.5,10.5 18.6,10.5 
		18.6,10.6 	"/>
	<path fill="#99CCCC" d="M33,3.6L33,3.6L33,3.6L33,3.6l-0.2-0.2l0.2,0l-0.1-0.1L33,3.4l0-0.1l0-0.1l-0.3-0.1l-0.1,0l0.1,0l0,0
		l-0.1,0l-0.1,0l0.2,0.1l0,0.1l0-0.1l0,0l-0.1-0.1l-0.1-0.2l-0.2-0.1l0,0.1l-0.1-0.1L31.7,3l-0.2-0.1l0,0L31,2.9l0,0l-0.1,0L30.8,3
		h-0.3l0.1,0.1v0.1l0.1,0l0.1,0.1l0,0.1l-0.3,0l-0.1-0.1l0,0.1l-0.2,0l-0.1,0l-0.2,0.1v0.1l-0.1,0v0l0,0l-0.1,0l0,0l-0.1,0l-0.1-0.2
		l-0.2-0.1l-0.2,0l-0.2,0.2l-0.1,0l0,0l-0.2,0l0,0.1l0-0.1l-0.1,0l0,0l0,0l-0.1,0l0,0l0.1,0v0l-0.1,0l-0.2,0l0,0.2L28,3.4l0.1,0l0,0
		l-0.1,0l0-0.1l0.1,0l0,0l-0.6,0v0l0.1,0.1l-0.1,0l0,0.1l0.1,0l0,0l0,0l0.1,0.1l0,0.1l-0.1,0l0,0l0,0.1l-0.3-0.1l-0.1,0.1l-0.1,0
		l-0.2-0.1l0.1,0.2l0,0.1l0,0l-0.3-0.1l0,0l-0.1-0.1l0,0.1l-0.3-0.1l0.1,0.1h0l-0.1-0.1l0.1-0.1v0l0.1,0l0-0.1l-0.4,0L26,3.5l-0.1,0
		v0.1l0,0l0,0.1l0.1,0L26,3.8l-0.1,0l-0.1,0l0,0h-0.2l0-0.1l0.1,0l0,0l-0.3,0.1l-0.1,0.1l0.1,0l0,0.1l-0.1-0.1l-0.1,0v0.1l-0.1,0v0
		l-0.2,0l0,0.1l0,0l0.1,0h0.1L25,4l-0.1,0l0,0.1l-0.1,0l0,0l0,0l-0.1,0.1l0.1,0l-0.1,0l0-0.2l0,0l0.1,0l0.2-0.2h-0.1l0.1,0l0-0.1H25
		l0,0V3.5l-0.1,0l0,0l-0.1-0.1l0.1,0l0-0.1l-0.1-0.1v0l0-0.1l-0.2-0.1l-0.1,0v0l-0.1,0l-0.1,0.1v0.1l-0.1,0l0-0.1l-0.1,0l0,0l0-0.1
		l0,0l0,0l-0.1,0l0.1-0.1l-0.1,0l-0.1,0l0,0l0,0.2l0.1,0.1l0.1,0l0.1-0.1v0.1l-0.2,0l-0.1,0h-0.1l0.2,0.1h-0.1l0,0l0,0.1l0,0l0,0.1
		l0-0.1l-0.1,0.1l0-0.1h-0.1l-0.1,0.1l0.1,0l-0.1,0.1v0l-0.2,0l0,0l0,0L23,4l-0.1,0L23,4h0v0.1h-0.1v0l0.1,0l-0.1,0l0.2,0v0l-0.1,0
		l0.1,0.1l-0.1,0l0,0l0,0l-0.5,0.2l0,0.1l0.1,0.1h0.1l0.1,0.1l0.1,0l0,0.1L23.2,5l0,0.1l0.1,0l0.2,0l0,0l-0.1-0.1l-0.1,0l-0.1-0.1
		L23,5L23,4.9l0-0.1l0,0V4.8h-0.2l-0.2-0.1h-0.1l-0.1,0.1l0.1,0h-0.2l0,0L22.7,5l-0.3,0l-0.1,0l-0.1-0.1V4.8l-0.1-0.1l0.1,0.2
		l-0.1,0V5l0.2,0.1l0,0.2l0.1,0.2l0.1-0.1l0.2,0l0.1,0.1l0,0l0,0.1l0.1,0h-0.2l-0.1-0.2l-0.1,0l-0.2,0.1l0.1,0.2l0,0.1l-0.1,0.1
		l0,0.1h-0.2l-0.2,0l0,0l0,0l0,0l0.1,0l0.1,0l0.1,0l0,0l0.1-0.1l0-0.1l0,0l-0.1-0.1l-0.2-0.4L22.1,5l0-0.2L22,4.7h-0.3l0,0.2l0,0.1
		l-0.1,0v0.1l0,0v0.1l0.1,0l0.1,0.1l0,0l0,0l0,0.1h0.1l0,0.1l0.1,0.1v0.1l-0.2-0.1l-0.2-0.1l-0.4-0.1l0,0.1l0.1,0.1l-0.1,0v0.1h-0.1
		l0-0.1L21,5.7l-0.1,0l-0.1,0v0.1l0,0l-0.1,0.1l0,0l0,0l0,0l0-0.1l0-0.1l0.1,0h0l-0.1,0.1l0,0l0,0l0-0.1l-0.3,0.2l0,0l-0.1,0V6
		l-0.1,0L20.1,6l0,0l0.1,0l-0.1-0.1l-0.2,0l0.1,0L20,6L20,6v0.2L20,6.1h-0.1l-0.1,0.1l-0.1,0.1l0.1,0.2h-0.2v0l-0.1-0.1l0,0.1
		l0.1,0.1h0l0.1,0.1l-0.1,0l-0.2-0.1l-0.1-0.2l0-0.1l-0.3-0.2l0.6,0.2l0.1-0.1L19.7,6l-0.2-0.1l-0.4-0.2H19l0,0l0,0l-0.1,0l0.1,0
		h-0.2l-0.1,0h0l0,0l0,0l-0.1,0h0.1l0.1,0l-0.1,0h0l0,0l-0.1,0l0,0l0,0l0,0l0,0.1h0l0,0h0l0,0v0l0,0l-0.1,0l0,0l0,0l0,0v0l0,0l0,0v0
		l-0.1,0.1l0,0l0,0v0l0-0.1h0h-0.1l0,0l0,0l0,0l0,0v0.1l0,0l0,0H18h0l0,0h0l0,0.1l-0.1,0l0,0l0,0l0,0l0,0h0l0-0.1v0l0,0l0,0l-0.1,0
		l0,0h0v0h0l-0.1,0h-0.1l0,0l0,0l0.1,0h0v0l0,0l0,0l-0.1,0h0l0,0h0.1h0v0h0h0l0,0.1h0v0l0,0h0v0h0l-0.1,0l0,0l0,0h0l0,0l0,0v0l0,0h0
		l-0.1,0h0.1v0h-0.1l0,0.1l0,0.1v0l0.1,0v0l-0.1,0l0,0h0l0,0.1l0,0h0l0,0l0,0.1l0,0l0,0h0l0,0l0,0l0,0l0,0.1l0,0l0,0l0,0l-0.1,0.1v0
		l-0.1,0l0.1,0l0.1-0.1h0l0,0h0l0,0v0l0,0.1l-0.1,0l0,0l-0.1,0.1v0l0,0h0v0l0,0h0l0,0l-0.1,0l-0.1,0l0,0h0.1l0,0l0,0l-0.1,0h0.1l0,0
		l0,0h0v0l-0.1,0l0,0h-0.1l0,0h0.1l0.1,0h0h-0.1l0,0l0,0h0l0,0l0,0l0.1,0h0h0l0,0v0l0,0h-0.1h-0.1h0v0.1v0.1l0,0l0,0l0,0l0,0l0.1,0
		l-0.1,0.1l0,0h0l0,0h0l0,0.1l0,0l0,0l0,0h0l0,0.1l0,0l-0.1,0v0l0.1,0.1l0.1,0l0.1,0L17,7.7L17,7.6l0,0l0,0l0,0l0-0.1l0,0h0v0l0,0v0
		v0.1l0,0l0,0l0,0.1l0,0l0,0v0l0,0l0,0.1l0.1,0.1l0,0v0h0l0,0h0l0,0.1v0.1l0,0l0,0l0,0l0,0l0,0v0l0,0v0h0.1l0-0.1l0-0.1l0,0h0V7.7
		V7.6l0,0h0l0,0l0,0h0l0,0l0,0l0,0l0.1-0.1l0-0.1l0,0l0-0.1h0h0l0-0.1V7.2v0h0v0V7l0,0l0,0l0,0l0,0v0h0l0,0l0,0l0,0h0l0,0l0,0l0,0
		l0,0l0-0.1l0,0l0-0.1l0-0.1l0,0l0,0l0,0l0-0.1l0,0l0,0l0-0.1l0.1,0v0h0.1h0.1l0,0l0,0l0,0.1l0,0l0,0l0,0l0,0.1l-0.1,0.1l0,0.1l0,0
		v0l0,0l0,0l0,0l0,0v0.1l0,0l0,0l0,0.1l0,0.1l0,0l0,0l0,0l0,0.1l0,0h0l0,0v0h0l0,0l0,0h0v0l0.1,0l0.1,0l0.1,0l0.1,0l0.1,0h0l0.1-0.1
		l0,0.1h0.1l0,0.1h-0.1l-0.1,0l0,0h-0.1l-0.1,0l-0.2,0.1v0.1l0.1,0.1l0,0v0.1v0.1l0,0h-0.1l-0.1-0.1l-0.1,0.1l0,0.2l0.1,0.2H18v0
		l0.1,0l-0.1,0l0,0l0,0h-0.1l0,0v0l-0.1,0h0l0,0l0,0l-0.1,0v0h0v0l0,0l0,0l0,0l-0.1,0l0,0l-0.1,0.1l0,0h-0.1l0-0.1h-0.1h0l0,0v0l0,0
		V8.2v0l0,0l0,0v0l0,0h0l0,0l0,0l0-0.1H17V8l0,0L17,8l0,0l0,0.1v0.1l0,0l0,0v0.1h0l0,0h0l0,0v0h0l0,0l0,0l0,0l0,0h0l0,0.1V8.4
		l-0.1,0v0v0l0,0l-0.1,0l-0.1,0v0.1h0l0,0l0,0.1l0,0l0-0.1l0-0.1l0,0.1l0,0.1v0l0,0h0l-0.1,0v0h0l-0.1,0l-0.1,0v0.1l0,0l-0.1,0
		l-0.1,0v0H16h0V9h0h0l0,0.1l0,0.1h0h0l0,0l0,0h0h-0.1l-0.1,0l0,0l0,0l0,0h0v0l0,0l0,0l0.1,0l0.1,0l0.1,0v0.1L16,9.5v0.1l0,0l0,0.1
		l0-0.1l0,0.1l0,0l0,0l0,0.2h-0.1l-0.1,0h-0.1l-0.1,0l0,0l-0.1,0l0,0l-0.1,0v0h-0.1l-0.1,0l0,0v0h0l0,0l0,0l0,0.2l-0.1,0.2v0l0,0.1
		h0l0,0h0v0v0.1l0,0.1h0.1h0l0.1,0h0l0.1,0l0,0l0,0.1l0.1,0l0.1-0.1l0,0l0.1,0l0,0l0,0h0l0,0l0,0h0l0,0l0,0l0.1,0h0v0h0l0-0.1l0.1,0
		l0,0v0l0-0.1v0l0.1-0.1l0,0l0,0l0,0h0l0.1,0l0.1-0.1l0.1,0l0,0l0,0l0,0V9.9l0.1,0l0,0l0,0l0,0l0,0h0h0l0,0h0.1h0.1v0l0,0h0h0v0h0
		l0,0l0,0l0.1,0h0.1l0.1,0l0,0.1v0l0,0v0h0l0,0l0.1,0.1l0,0l0.1,0.1l0.1,0h0.1l0,0.1h0v0h0l0,0v0l0.1,0h0l0.1,0.2l0,0v0.1h0v0l0,0
		l0,0v-0.1l0.1,0v-0.1l0,0h0l0-0.1l0,0l0,0l0,0l0,0h0l0,0l-0.1-0.1l-0.1-0.1l-0.1,0v0l0,0l0,0h0L17.6,10l-0.1-0.2l-0.1-0.1v0l0,0
		l0,0l0,0l0,0h0v0l0,0l0,0.1l0-0.1l0.1,0l0,0l0.1,0.1l0,0l0.1,0.1l0,0l0.1,0l0.1,0.1l0,0v0l0.1,0l0.1,0l0.1,0.1l0,0v0.1h0l0,0v0.1h0
		l0.1,0l0,0.1v0l0.1,0.1h0v0h0l0.1,0.1h0.1h0l0.1,0l0,0l-0.1,0h-0.1l0,0l0.1,0l0,0.1l0,0h0v0h0l0,0.1h0v0l0.1,0v0v0l-0.1-0.1l0.1,0
		h0l0-0.1l0,0l0.1,0l0-0.1l-0.1-0.1l-0.1,0l0,0l0,0l-0.1-0.1v-0.1l0,0v0l0,0l0.1,0l0.1,0v0l0,0h0l0,0l0,0l-0.1-0.1l0,0l0,0h0l0,0
		l0,0l0,0l0.1,0v0h0h0l0,0v0l0,0l0.1,0l0,0H19h0.1l0.1,0l-0.1,0l0,0H19l0,0l0,0v0h-0.1h0l-0.1,0.1v0.1l0.1,0l0,0l0,0l0,0l0,0l0,0
		h-0.1l0,0h0l0,0l0,0l0.1,0l0,0v0v0l0,0v0h0.1l-0.1,0v0l0.1,0l0,0v0h0l0,0h0l0,0l0.1,0l0.1,0h0v-0.1l0.1,0l0.1,0l0,0l0.1,0l0.1,0
		l0.1-0.1l0.1,0l0,0h0l0,0.1l0,0v0.1l0,0l0,0l0,0l0,0l0,0.1l0,0l0,0l0,0.1l0,0.1v0l0,0l-0.1,0l-0.1,0l0,0l0,0v0l0,0l0,0l-0.1,0l0,0
		h0l0,0l-0.1,0l-0.3-0.1l-0.1,0h-0.1l-0.1-0.1l-0.1,0l0,0l-0.1,0h-0.1l0,0v0l-0.1,0l0,0.1l0,0.1l0,0.1l-0.1,0l-0.2-0.1l-0.2,0l0-0.1
		l-0.1,0l-0.1,0h-0.1l-0.1,0l-0.1,0l0,0l0,0v0l-0.1,0l0,0l0.1-0.1l0-0.1v-0.1l-0.1,0l0-0.1l0-0.1l-0.1,0l0,0l0,0l-0.1,0l0,0l-0.1,0
		l-0.1,0h-0.1l0,0l-0.1,0l0,0h0l-0.1,0h-0.1l0,0l-0.1,0l-0.1,0l-0.1,0l-0.1,0.1l0,0l-0.1,0l-0.1,0l0,0h0h-0.1l0,0l0,0h0h-0.1
		l-0.1-0.1h-0.1L15.4,11l0,0.1l-0.1,0.1l-0.1,0l-0.1,0.1l0,0.1l0,0.1l0,0.1l0,0l0,0.1l-0.1,0.1l-0.1,0.1l-0.1,0l-0.1,0.1L14.6,12
		l-0.1,0.1v0.1l-0.1,0.1l0,0.1l0,0v0.1l0,0l0,0v0.1h0l0,0.1l0,0l0,0.1l0,0.1l0,0l0,0v0.1l0,0.1l0,0.1l0,0.1l-0.1,0.1l0,0l0,0l0,0
		l0,0v0h0v0v0h0.1l-0.1,0l0,0l0.1,0v0l0.1,0v0.1l0,0l0,0l0,0l0,0l0,0.1l0.1,0.1l0,0v0l0,0V14l0,0.1v0l0.1,0l0.1,0.1l0.1,0.1l0.2,0.1
		l0.1,0l0.1-0.1l0.1,0h0.1h0.1h0l0,0l0,0l0,0l0.1,0l0.1,0l0.1,0l0.1,0l0.1,0l0,0l0,0h0l0.1,0h0.1h0.1l0.1,0l0,0.1h0v0l0,0l0.1,0.1
		l0,0l0,0l0,0l0,0h0.1l0,0l0.1,0l0.1,0h0l0,0h0l0,0.1h0h0l0,0.1l0,0.1v0.1l0,0.1l0,0l0,0.1h0l0,0l0,0h0h0l0,0.1h0l0,0l0,0.1l0,0v0h0
		l0,0h0l0,0.1l0.1,0h0l0,0l0.1,0.1l0.1,0.1l0,0l0,0v0l0,0h0l-0.1,0l0.1,0.1l0,0.2l0,0l0,0.1l0,0.1l0,0.1l0,0.1l-0.1,0l0,0l0,0.1
		l0,0.1v0.1l0,0.1l0,0l0,0.1l0,0.1v0.1l0.1,0.1l0,0.1l0.1,0.2l0.1,0.2l0,0.1v0.1v0.1l0,0.1l0,0.1v0.1l0,0.1v0l0.1,0.1l0.1,0.1l0,0.1
		l0,0.1l0.1,0.2l0,0.1l0,0.1h0l0,0l0.1,0.1l0,0.1l0,0v0h0l0,0h0l0,0l0.1,0l0,0l0,0l0.1,0l0.1,0v0h0.1h0.1l0.1,0l0,0h0.1l0,0h0.1
		l0.2-0.2l0.1-0.1l0.1-0.1v0l0.1-0.1l0,0l0.1-0.1l0-0.1l0-0.1v-0.1v0l0,0l0,0l0,0l0,0l0,0l0.2,0l0.1-0.1l0,0l0,0l0-0.1l0-0.1v-0.1h0
		v0l0-0.1l0-0.1l0-0.1v0L20,17l0.1,0l0.1-0.1l0,0l0.1-0.1l0.1,0l0,0l0.1,0l0,0h0l0-0.1l0.1-0.1h0l0,0l0,0l0,0l0-0.1v0v0v0v-0.1v-0.1
		l0-0.1l0,0v0l0,0l-0.1,0l0-0.1l0-0.1l0-0.1l0-0.1l0,0l0,0l0,0l0-0.1v-0.1l0-0.1l0-0.1l0.1-0.1v-0.1l0,0l0.1,0v0l0,0l0,0l0.2-0.2
		l0.2-0.2l0.1-0.1l0.2-0.2l0.1-0.2v0l0.1-0.1v0l0,0l0.1-0.1v-0.1h0v-0.1l0,0l0-0.1h-0.1l0,0l0,0l-0.1,0l-0.1,0l-0.1,0l0,0l-0.1,0.1
		l-0.1,0l-0.1,0h-0.1l-0.1-0.1l0,0h-0.1v0l0.1,0l0-0.1l0,0h0l-0.1-0.1l-0.1-0.1l-0.1-0.1l0,0h0l0-0.1v0.1l0,0l0-0.1l-0.1-0.1l0-0.1
		l0,0l0-0.1l-0.1,0l-0.1-0.3h0l0,0l0-0.1l0,0l0,0l0,0l0-0.1l0,0l0,0L19.8,12l-0.1-0.1l0-0.1l0-0.1l-0.1-0.1l0,0v0h0l0,0.1l0,0l0,0
		l0.1,0.1v-0.1l0-0.1l0,0h0v0.1l0,0.1h0.1l0,0l0.1,0.1L20,12l0.1,0.1v0l0,0.1l0.1,0l0.1,0.2v0v0.1l0.1,0.1l0.1,0l0.1,0.1l0.1,0.2
		l0.1,0.1l0.1,0.1v0.1v0.1l0,0.1l0,0.1l0,0.1l0.1,0l0.1,0H21v0l0.1,0l0.2,0l0.1,0h0l0.1,0l0,0l0.1,0l0.3-0.1v0l0-0.1l0.1,0l0.1,0
		l0.1,0h0v0l0-0.1h0.1l0,0v-0.1l0.1,0l0.1,0l0-0.1l0-0.1l0,0v0h0l0.1-0.1l0-0.1l0,0l-0.1-0.1l-0.1,0l-0.1-0.1l-0.1-0.1V12V12h0l0,0
		L22,12.1L22,12.1l0,0.1l-0.1,0h-0.1l0,0l0,0l0,0h0l0,0v-0.1V12L21.6,12l0,0.1l0,0l0,0.1l0,0l0-0.1l0,0l0,0h0v0l0-0.1l-0.1,0l0,0
		l0,0v0l0,0l0-0.1l0-0.1l0,0l0,0v0l0,0l0,0h0l0,0l0,0l0-0.1h0l0,0l0,0l0,0l0.1,0l0,0l0.1,0.1l0,0l0,0l0.1,0.1l0.1,0l0,0l0.1,0l0.1,0
		l0.1,0l0,0l0.1,0l0,0h0.1l0.1,0.1l0.1,0.1l0.1,0l0.1,0l0.1,0l0.1,0l0.1,0l0.1,0l0.1,0l0.1,0l0,0l0,0v0l0.1,0l0,0l0.1,0l0,0.1h0l0,0
		l0,0.1l0.1,0l0,0h0l0,0l0,0l0.1,0.1l0.1,0v0l-0.1,0.1l0,0l0.1,0.2l0.1,0l0.1-0.1v-0.1l0,0l0,0l0,0H24v0h0v0l0,0l0,0v0l0,0v0.1
		l0,0.2l0,0.1l0.1,0.3l0.1,0.1l0,0.1l0.1,0.2l0.1,0.1l0.1,0.2l0,0l0.1,0.2l0.1,0V14l0,0h0.1l0,0l-0.1,0l0-0.1l0.1,0l0-0.1l0-0.1
		l0-0.1l0-0.1h0l0-0.1v0l0-0.1l0-0.1l0,0l0,0l0-0.1l0,0l0.1,0v0l0,0l0.1-0.1l0.1-0.1l0.1-0.1h0l0,0l0,0l0.1,0l0,0l0,0v0l0,0l0,0v0
		l0,0l0.1,0v0h0v0.1h0l0-0.1l0,0.1l0,0h0h0l0,0l0,0v0l0,0l0-0.1l0,0l0,0l0-0.1h0v0l0.1,0l0,0.1l0.1,0l0.1,0.1v0.1l0,0.1l0.1,0.1h0
		l0,0h0l0,0.1l0.1,0.1h0h0l0.1,0l0,0l0,0.1l0,0.1V13v0.1l0,0v0h0l0,0v0l0,0l0,0l0.1-0.1l0,0V13h0l0,0l0,0h0v0.1l0,0.1l0,0.1l0,0.1
		l0,0l0,0.1l0,0.1h0v0h0v0.1l0,0v0.1l0,0l0,0l0,0.1l0,0.1h0v0l0,0l0.1,0.1l0,0.1l0,0.1l0,0.1v0.1l0,0l0,0.1l0,0.1l0.1,0.1v0l0.1,0.1
		l0.1,0l0.1,0.1l0,0l0,0v0l0,0h0l-0.1-0.1l0,0v-0.1v-0.1v-0.1l-0.2-0.2l-0.1-0.1h0l-0.1,0l0-0.2h0l0-0.1l-0.1,0l0-0.1l0-0.1l0-0.1
		l0-0.1v-0.1v-0.1l0.1,0l0,0.1h0.1l0.1,0.1l0,0v0l0,0.1l0,0h0v0.1h0l0.1,0l0,0h0l0,0l0,0V14l0.1-0.1h0.1v-0.1l0,0l0-0.1v0l0.1-0.1
		l0,0h0l0.1-0.1l0-0.1l0,0l0,0h0v0l0,0l0,0v-0.1l-0.1-0.2v0l0,0l-0.1-0.1l0,0l0,0l0,0L27.7,13l0-0.1l-0.1-0.1v-0.1l0,0h0v-0.1l0,0
		l0,0l0,0h0l0,0h0v0h0l0,0l0,0l0,0l0.1,0l0,0v0l0,0.1l0.1,0l0,0l0-0.1l0.1,0l0.1,0l0.1,0l0,0v0l0,0l0.1,0l0-0.1l0.1,0.1l0.1,0v0l0,0
		h0l0.1,0l0-0.1h0l0,0l0.1-0.1l0,0l0.1,0l0,0l0.1-0.1v0v-0.1l0,0l0,0v0l0.1,0l0-0.1l0-0.1l0,0v0l0,0l0,0l0,0v0l0,0h0v0l-0.1,0
		l0.1-0.1h0L29,11.3l-0.1,0l0,0h0l0,0l0.1,0l0,0l0.1,0L29,11.2l-0.1-0.1h0l0,0H29l0.1,0l0,0L29,11l0-0.1l0,0l-0.1-0.2l-0.1,0v-0.1
		l0.1-0.1l0.1-0.1l0,0l0.1-0.1l0.1,0l0-0.1h-0.1h-0.1l-0.1,0l-0.1,0l0,0.1l0,0l-0.1,0l0-0.1l-0.1,0h0l-0.1-0.1l0-0.1h0.1l0,0V10
		l0.1-0.1l0.1-0.1l0.1,0l0.1,0.1L28.8,10l0,0h0l0,0v0l0,0l0,0l0.1-0.1l0.1-0.1l0.1,0l0.1,0l0,0h0v0l0.1,0l0,0l0,0l0,0v0.1h0.1l0,0
		l0,0l0,0.1l0.1,0v0h0l0,0l0,0h0l0,0l0.1,0l0,0h0l0,0l0,0l0,0l0,0.1l-0.1,0l0,0l0,0l0,0.1l0,0v0l0,0l0,0l0,0l0,0.1l0,0v0.1l0,0l0,0
		l0,0h0l0,0l0,0l0,0v0l0,0l0,0h0v0h0l0,0l0-0.1v-0.1l0,0l0-0.1l-0.1-0.1l-0.1-0.2h0L29.4,10l0,0h0l0-0.1l0-0.1h0.1v0l0,0l0,0l0,0
		V9.7h0V9.6l0-0.1l0,0l0.1-0.2h0.1l0,0l0.1,0l0.1,0l0.1-0.1l0.2-0.4V8.6l0.1-0.2l-0.1-0.6l0-0.2L30,7.5h0v0l-0.2-0.2l-0.1,0l0.1,0.1
		l0,0.1V7.4l-0.1,0.1l0-0.1l0,0l0,0l0,0l0-0.2l-0.1,0l-0.1,0l0.1-0.4l0.1,0l0,0v0l0.2-0.6L30,6.1l0,0.1l0-0.1l0.1,0l0,0l0,0l0,0
		l0-0.1l0,0l0.1,0v0h0.1l0.1,0l-0.1,0.1l0,0L30.6,6l0.1,0V6l0.2,0l-0.1-0.1l-0.1,0l0-0.1l0.1-0.5h0.1l0.1-0.1l0.1,0l0-0.1l0.1,0.3
		l0.1,0l0,0.1l0,0l0-0.3l0,0l0,0l0,0l0,0L31.2,5l0.1-0.1l0.1,0l0,0l-0.1,0l0.1,0.3l0,0.1l0,0l-0.1,0.1v0.2l-0.1,0.4l-0.1,0v0l0,0
		l0.1,0.1l0,0.2l0.1,0.3l0.5,0.8l0.1-0.1l0-0.1l-0.1-0.2l0,0l0.1-0.1h0L31.9,7V6.9l0.1-0.1H32l0-0.1l-0.1-0.1l-0.1-0.3l0,0l0,0.1
		l0,0l0,0l-0.1-0.1l-0.1,0l0,0l0-0.2l-0.1,0l0,0h0L31.7,6l0-0.2l0,0l-0.1-0.2l0-0.1l0.1,0l0.1,0.1l0.1-0.2l0.1,0.2l0-0.2l0.1-0.1H32
		l0.2,0.1l0,0l0-0.1l0.1-0.2l0,0h0l0,0l0,0l0,0l0,0l0-0.1l0,0l0.1,0l0-0.1l0.1-0.2V4.6l0.2,0.1l0-0.1l-0.2-0.2l0,0v0h0l-0.1-0.1h0v0
		l-0.1-0.1l0,0l-0.1-0.1l-0.1,0.1L32,4h0.1l0,0l0.1,0.1l0.1,0l0,0l0-0.1l0-0.2l-0.2-0.2l0,0l0,0l0.1,0V3.5l0.1,0.1l0.1,0.1l0.1,0
		l0-0.1v0h0.1l0.1,0.1l0.1,0l0,0L33,3.9l0-0.1l0.1,0.1l0-0.1l0.1,0L33,3.8L33,3.6z M22,9.7l0-0.3l0.2-0.1v0l0,0l0,0.1l0,0.1l0,0.1
		l0,0l-0.1,0L22,9.7L22,9.7L22,9.7z M22.5,10.1L22.5,10.1L22.5,10.1L22.5,10.1z M22.6,10.2L22.6,10.2L22.6,10.2L22.6,10.2z M22.3,10
		L22.3,10l-0.1-0.1L22.3,10z M19.5,10.1L19.5,10.1l-0.1,0.1l0,0h-0.1l0,0h0h-0.1L19,10.1v0l0-0.1l0,0l0-0.1l0,0l0,0V9.8V9.7v0v0l0,0
		h0v0h0.1V9.6l0-0.1l0.1-0.1l0.1,0l0,0h0l0,0l0,0.1h0h0l0,0l0.2,0v0l-0.1,0.1l0,0l0,0l0.1,0v0.1l0.1,0l0.1-0.1l0.1,0h0.1h0l0,0
		l-0.2,0l0-0.1l0.1-0.1l0,0.1l0-0.1L20,9.3l0.1,0l0,0v0.1H20l-0.1,0.2v0L20,9.7l0.1,0.1l0.1,0.1l0.1,0.1l0.1,0.1v0.1l-0.1,0.1
		l-0.1,0l0,0l-0.1,0l-0.1,0l0,0l-0.1,0l0,0l0,0l0,0l0,0h-0.1l0,0l0,0h0v0L19.5,10.1L19.5,10.1z M21.7,10.7L21.7,10.7L21.7,10.7
		L21.7,10.7L21.7,10.7h-0.2l-0.1-0.1l-0.1,0l-0.1-0.1v0l0-0.1l0,0l0,0v0v-0.1l0.1,0l-0.1-0.1l-0.1-0.1L21,9.9L21,9.8V9.8l0,0l-0.1,0
		l0.1,0l-0.1,0l0.1-0.2l0.1,0l0.1-0.1l0.1-0.1l0.1,0l0.1,0l0.1,0l0.1,0v0.2l0.1,0l-0.2,0l0,0.1l0.1,0h-0.1h-0.1l0.1,0.1l0.1,0.2
		l0.1,0h0.1v0V10v0l0,0.1l0-0.1l0,0h0.1l0,0.1l0.1,0l0,0v0l-0.1,0h-0.1l0,0.1l0.1,0l0,0.1l-0.1,0v0.1l0.1,0L21.7,10.7L21.7,10.7
		L21.7,10.7z M32,4L32,4L32,4L32,4z"/>
	<polygon fill="#99CCCC" points="29.1,12 29.1,12.1 29,12.2 29,12.3 29.1,12.3 29.1,12.4 29.1,12.4 29.1,12.4 29.2,12.3 29.2,12.3 
		29.2,12.1 29.2,12.1 29.2,12 29.2,12 	"/>
	<polygon fill="#99CCCC" points="27.6,15.6 27.7,15.4 27.7,15.4 27.6,15.4 27.7,15.3 27.7,15.3 27.6,15.2 27.6,15.2 27.5,15.2 
		27.5,15.2 27.5,15.1 27.5,15.1 27.4,15.1 27.4,15 27.4,15 27.4,15 27.4,15 27.4,14.9 27.4,14.9 27.4,14.9 27.3,14.9 27.4,14.9 
		27.3,14.9 27.3,14.9 27.2,14.8 27.2,14.8 27.2,14.8 27.1,14.7 27.1,14.7 27.1,14.7 27,14.7 27,14.6 26.8,14.5 26.8,14.5 26.8,14.4 
		26.7,14.4 26.6,14.3 26.5,14.3 26.5,14.4 26.5,14.4 26.7,14.6 26.7,14.6 26.8,14.7 26.8,14.7 26.8,14.7 26.9,14.8 26.9,14.8 
		26.9,14.9 27,15 27,15 27.1,15.1 27.1,15.1 27.1,15.2 27.1,15.2 27.2,15.3 27.3,15.4 27.3,15.4 27.4,15.5 27.4,15.5 27.4,15.5 
		27.5,15.6 27.5,15.6 27.5,15.6 27.6,15.6 27.6,15.6 	"/>
	<polygon fill="#99CCCC" points="29.5,15.1 29.5,15.1 29.6,15.1 29.6,15.1 29.5,15 29.5,15 29.5,15.1 29.4,15.1 29.4,15.1 
		29.4,15.1 29.4,15.1 29.3,15.1 29.3,15.1 29.3,15.1 29.2,15.1 29.2,15.1 29.2,15 29.2,14.9 29.3,14.9 29.3,14.9 29.4,14.9 
		29.4,14.9 29.5,14.9 29.6,14.9 29.7,14.9 29.7,14.9 29.8,14.8 29.8,14.8 29.7,14.8 29.7,14.9 29.5,14.9 29.4,14.9 29.4,14.9 
		29.3,14.8 29.3,14.8 29.3,14.9 29.2,14.9 29.2,14.9 29.2,14.9 29.2,15 29.2,15 29.2,15.1 29.1,15.1 29.1,15.2 29.1,15.2 29.1,15.2 
		29.1,15.3 29.1,15.3 29.1,15.3 29.1,15.4 29.1,15.4 29.1,15.4 29.2,15.5 29.1,15.6 29.1,15.6 29.2,15.6 29.2,15.6 29.2,15.6 
		29.2,15.5 29.2,15.5 29.2,15.4 29.2,15.3 29.2,15.3 29.3,15.3 29.3,15.3 29.3,15.3 29.3,15.4 29.3,15.4 29.4,15.4 29.4,15.5 
		29.4,15.5 29.4,15.5 29.5,15.5 29.5,15.5 29.5,15.4 29.5,15.4 29.5,15.4 29.4,15.4 29.5,15.4 29.5,15.3 29.3,15.2 29.4,15.2 	"/>
	<polygon fill="#99CCCC" points="28.3,15.9 28.4,15.9 28.4,15.9 28.5,16 28.6,16 28.6,16 28.6,15.9 28.6,15.9 28.6,15.8 28.5,15.8 
		28.5,15.8 28.5,15.8 28.4,15.8 28.4,15.7 28.3,15.7 28.3,15.7 28.2,15.7 28.2,15.7 28.2,15.7 28.1,15.7 28.1,15.7 28,15.7 
		27.9,15.7 27.9,15.7 27.9,15.7 27.8,15.6 27.8,15.6 27.8,15.7 27.7,15.6 27.7,15.7 27.6,15.7 27.6,15.7 27.6,15.7 27.6,15.7 
		27.7,15.8 27.7,15.8 27.8,15.8 27.9,15.8 28,15.8 28.1,15.9 28.2,15.9 28.3,15.9 	"/>
	<polygon fill="#99CCCC" points="29.6,16.1 29.7,16.1 29.7,16.1 29.7,16 29.9,16 29.9,16 29.9,16 30,15.9 29.9,15.9 29.7,16 
		29.7,16 29.6,16 29.6,16 29.6,16.1 29.5,16.1 29.6,16.1 	"/>
	<polygon fill="#99CCCC" points="30,15 30,15 30.1,15.1 30.1,15 30.1,14.9 30.2,15 30.1,14.9 30.2,14.9 30.2,14.8 30.1,14.8 
		30.1,14.8 30.1,14.9 30.1,14.9 30,14.9 30.1,14.8 30.1,14.8 30.1,14.7 30,14.8 30,14.9 30,14.9 30,14.9 	"/>
	<polygon fill="#99CCCC" points="30.1,15.4 30.1,15.4 30.1,15.4 30.2,15.4 30.2,15.4 30.2,15.4 30.2,15.4 30.3,15.4 30.4,15.4 
		30.4,15.4 30.4,15.4 30.3,15.3 30.3,15.3 30.2,15.3 30.2,15.3 30.2,15.3 30.1,15.3 30.1,15.4 30.1,15.4 	"/>
	<polygon fill="#99CCCC" points="29.3,16 29.4,16 29.4,16 29.5,16 29.5,15.9 29.5,15.9 29.5,15.9 29.5,15.9 29.5,15.9 29.4,16 
		29.4,15.9 29.3,16 29.3,15.9 29.2,15.9 29.2,15.9 29.2,15.9 29.2,16 29.2,16 29.2,16 29.3,16 	"/>
	<polygon fill="#99CCCC" points="29.1,16 29.1,15.9 29,15.9 29,15.9 29,15.9 29,15.9 28.9,15.9 29,15.9 29,16 28.9,16 28.9,15.9 
		28.9,15.9 28.8,15.9 28.8,16 28.9,16 29,16 29,16 29,16 29,16 	"/>
	<polygon fill="#99CCCC" points="27.6,15.1 27.6,15.2 27.6,15.2 27.6,15.2 27.7,15.2 27.7,15.3 27.8,15.3 27.7,15.3 27.8,15.3 
		27.7,15.2 27.7,15.2 27.7,15.1 27.7,15.1 27.7,15.2 27.6,15.2 27.6,15.1 	"/>
	<polygon fill="#99CCCC" points="29.2,16.1 29.2,16.1 29.2,16.1 29.3,16.1 29.2,16.1 29.2,16 29.2,16 29.1,16 29.1,16 29.1,16 
		29.1,16.1 	"/>
	<polygon fill="#99CCCC" points="29.9,15.4 29.9,15.4 30,15.4 30,15.3 29.9,15.3 	"/>
	<polygon fill="#99CCCC" points="28.6,15.9 28.6,15.9 28.6,15.9 28.6,16 28.7,15.9 28.7,15.9 28.6,15.9 28.6,15.9 	"/>
	<polygon fill="#99CCCC" points="28.4,15.8 28.5,15.8 28.5,15.8 28.5,15.8 28.5,15.7 28.4,15.7 	"/>
	<polygon fill="#99CCCC" points="28.7,16 28.8,16 28.8,15.9 28.8,15.9 28.7,15.9 28.8,16 28.7,16 	"/>
	<polygon fill="#99CCCC" points="27.9,15.3 27.9,15.3 27.9,15.3 27.9,15.3 27.9,15.3 	"/>
	<polygon fill="#99CCCC" points="26.7,14.8 26.8,14.9 26.8,14.9 26.8,14.8 	"/>
	<polygon fill="#99CCCC" points="26.9,15.1 26.9,15.1 26.9,15.2 26.9,15.2 26.9,15.1 	"/>
	<polygon fill="#99CCCC" points="30.4,15.9 30.5,15.8 30.4,15.8 30.4,15.9 	"/>
	<polygon fill="#99CCCC" points="26.6,14.7 26.6,14.7 26.6,14.7 26.6,14.6 	"/>
	<polygon fill="#99CCCC" points="27.9,14.5 27.9,14.5 27.9,14.5 27.9,14.6 27.9,14.6 27.9,14.6 	"/>
	<polygon fill="#99CCCC" points="30.1,10.5 30.1,10.6 30.1,10.6 30,10.6 30,10.7 30,10.7 30,10.7 30,10.8 30,10.8 30.1,10.8 
		30.1,10.8 30.1,10.8 30.1,10.7 30.1,10.7 30.1,10.7 30.1,10.7 30.2,10.7 30.3,10.6 30.3,10.6 30.4,10.6 30.4,10.7 30.4,10.7 
		30.4,10.7 30.4,10.8 30.5,10.8 30.5,10.8 30.5,10.7 30.6,10.7 30.6,10.6 30.5,10.6 30.5,10.6 30.6,10.6 30.6,10.6 30.6,10.6 
		30.6,10.6 30.7,10.6 30.7,10.6 30.7,10.6 30.8,10.5 30.8,10.6 30.8,10.6 30.8,10.5 30.8,10.5 30.9,10.5 30.9,10.5 30.9,10.5 
		30.9,10.5 30.9,10.6 30.9,10.5 30.9,10.5 31,10.4 30.9,10.4 30.9,10.3 30.9,10.1 30.9,10.1 30.9,10 30.9,10 30.9,10 30.9,9.9 
		31,9.8 30.9,9.8 30.9,9.8 30.9,9.7 30.8,9.7 30.8,9.5 30.8,9.6 30.7,9.5 30.7,9.6 30.8,9.6 30.8,9.6 30.8,9.6 30.8,9.7 30.7,9.6 
		30.7,9.6 30.7,9.7 30.7,9.7 30.7,9.8 30.7,9.8 30.7,9.8 30.7,9.8 30.7,9.9 30.7,10 30.7,10.1 30.7,10.1 30.6,10.2 30.6,10.3 
		30.5,10.3 30.5,10.3 30.5,10.3 30.5,10.3 30.5,10.2 30.5,10.2 30.5,10.2 30.5,10.3 30.5,10.4 30.4,10.4 30.5,10.5 30.4,10.5 
		30.4,10.5 30.4,10.5 30.4,10.5 30.3,10.5 30.2,10.5 30.2,10.5 30.2,10.5 	"/>
	<polygon fill="#99CCCC" points="30.6,9.4 30.6,9.5 30.6,9.5 30.7,9.6 30.7,9.5 30.7,9.5 30.7,9.5 30.7,9.5 30.7,9.5 30.7,9.4 
		30.6,9.4 30.6,9.4 30.7,9.4 30.7,9.4 30.7,9.4 30.8,9.3 30.8,9.4 31,9.4 31,9.4 31,9.3 31,9.3 31.1,9.2 31.1,9.2 31.1,9.2 
		31.1,9.2 31.1,9.2 31.1,9.1 31.1,9 31.1,9 31,9.1 31,9.1 31,9.1 30.9,9.1 30.8,9 30.7,8.9 30.6,8.9 30.6,8.9 30.7,9 30.7,9.1 
		30.7,9.2 30.7,9.2 30.7,9.2 30.6,9.2 30.6,9.2 30.6,9.2 30.6,9.3 30.6,9.4 	"/>
	<polygon fill="#99CCCC" points="29.9,11.8 29.8,11.8 29.8,11.8 29.8,11.8 29.8,11.9 29.9,11.9 29.8,11.8 29.9,11.8 	"/>
	<polygon fill="#99CCCC" points="29.9,11.6 30,11.6 30,11.5 29.9,11.6 	"/>
	<polygon fill="#99CCCC" points="29.3,12.9 29.3,12.8 29.3,12.9 29.2,12.8 29.2,12.8 29.2,13 29.2,13.1 29.2,13.1 29.2,13.2 
		29.1,13.1 29.1,13.1 29.1,13.2 29.2,13.3 29.2,13.3 29.2,13.3 29.2,13.3 29.2,13.4 29.2,13.4 29.2,13.4 29.3,13.4 29.3,13.4 
		29.3,13.4 29.4,13.4 29.4,13.5 29.5,13.5 29.4,13.4 29.4,13.4 29.5,13.4 29.5,13.5 29.5,13.5 29.5,13.5 29.6,13.5 29.6,13.6 
		29.6,13.5 29.6,13.5 29.5,13.4 29.6,13.4 29.5,13.4 29.5,13.4 29.5,13.4 29.5,13.4 29.4,13.4 29.4,13.4 29.4,13.4 29.3,13.4 
		29.3,13.3 29.3,13.3 29.3,13.2 29.3,13.2 29.4,13.1 29.4,13.1 29.4,13 29.3,13 29.3,12.9 	"/>
	<polygon fill="#99CCCC" points="29.8,13.9 29.8,14 29.7,14 29.7,14 29.7,14 29.7,14 29.6,14.1 29.6,14.1 29.6,14.1 29.6,14 
		29.6,14 29.5,14 29.5,14.1 29.4,14.1 29.4,14.1 29.4,14.2 29.4,14.1 29.5,14.1 29.5,14.1 29.5,14.1 29.5,14.1 29.5,14.1 29.6,14.1 
		29.6,14.1 29.6,14.1 29.7,14.2 29.6,14.2 29.7,14.3 29.8,14.3 29.8,14.3 29.8,14.3 29.8,14.3 29.8,14.4 29.8,14.3 29.8,14.2 
		29.8,14.2 29.9,14.3 29.9,14.3 29.9,14.2 29.9,14.2 29.9,14.1 29.9,14 29.9,14 29.9,14 29.9,13.9 29.8,13.9 	"/>
	<polygon fill="#99CCCC" points="29.4,13.7 29.4,13.6 29.4,13.6 29.4,13.7 29.4,13.8 29.5,13.7 29.5,13.7 29.5,13.7 29.5,13.7 	"/>
	<polygon fill="#99CCCC" points="29,13.9 28.9,14 28.9,14 28.9,14 29,14 29,13.9 29,13.9 29.1,13.9 29.1,13.8 29.1,13.8 29.1,13.7 
		29.1,13.7 29.1,13.7 29.1,13.7 29.1,13.8 29.1,13.8 29,13.9 	"/>
	<polygon fill="#99CCCC" points="29.6,13.6 29.7,13.6 29.7,13.7 29.8,13.7 29.8,13.7 29.8,13.6 29.8,13.6 29.7,13.6 29.7,13.5 	"/>
	<polygon fill="#99CCCC" points="29.6,13.8 29.5,13.7 29.5,13.8 29.5,13.8 29.4,13.9 29.5,13.9 29.5,13.9 29.5,14 29.5,14 
		29.5,13.9 29.5,13.8 	"/>
	<polygon fill="#99CCCC" points="29.7,13.7 29.7,13.7 29.7,13.8 29.8,13.8 29.7,13.7 29.7,13.7 29.7,13.7 29.6,13.7 	"/>
	<polygon fill="#99CCCC" points="29.6,13.8 29.5,13.9 29.6,13.9 29.6,13.8 29.6,13.8 29.6,13.7 	"/>
	<polygon fill="#99CCCC" points="29.6,13.9 29.7,13.9 29.7,13.9 29.7,13.8 29.6,13.9 	"/>
	<polygon fill="#99CCCC" points="24.9,14 24.9,13.9 24.8,13.9 24.8,13.9 24.8,13.9 24.8,14 24.8,14 24.8,14.1 24.8,14.1 24.8,14.1 
		24.8,14.2 24.9,14.3 25,14.2 25,14.1 25,14 	"/>
	<polygon fill="#99CCCC" points="28.1,12.8 28.1,12.7 28.1,12.7 28.1,12.7 28.1,12.7 28,12.7 27.9,12.7 27.9,12.7 27.9,12.8 
		27.9,12.8 28,12.9 28,12.8 28.1,12.8 	"/>
	<polygon fill="#99CCCC" points="24.2,14.5 24.3,14.5 24.3,14.4 24.2,14.4 	"/>
	<polygon fill="#99CCCC" points="20.8,16.2 20.8,16.2 20.8,16.2 20.8,16.2 20.8,16.2 	"/>
	<polygon fill="#99CCCC" points="21.5,16.4 21.5,16.3 21.5,16.3 21.5,16.3 21.5,16.3 21.4,16.3 21.4,16.3 21.4,16.4 21.4,16.4 
		21.4,16.4 21.3,16.5 21.3,16.4 21.3,16.4 21.3,16.5 21.3,16.5 21.3,16.5 21.3,16.5 21.3,16.6 21.3,16.6 21.2,16.6 21.2,16.6 
		21.2,16.6 21.2,16.6 21.2,16.6 21.2,16.6 21.1,16.7 21.1,16.7 21.1,16.7 21,16.7 21,16.7 21,16.7 20.9,16.7 20.9,16.7 20.9,16.8 
		20.9,16.9 20.9,17 20.9,17.1 20.9,17.1 20.9,17.1 20.9,17.2 20.8,17.3 20.8,17.3 20.7,17.4 20.8,17.5 20.8,17.6 20.8,17.7 
		20.8,17.8 20.9,17.8 20.9,17.8 21,17.8 21.1,17.8 21.1,17.7 21.2,17.4 21.4,17.1 21.5,16.9 21.5,16.8 21.5,16.7 21.5,16.7 
		21.5,16.6 21.5,16.6 21.5,16.7 21.6,16.6 21.5,16.5 	"/>
	<polygon fill="#99CCCC" points="22.3,17.2 22.3,17.2 22.3,17.2 22.3,17.2 22.3,17.2 	"/>
	<polygon fill="#99CCCC" points="9.6,21.7 9.5,21.6 9.4,21.5 9.4,21.5 9.3,21.5 9.2,21.5 9.2,21.6 9.3,21.6 9.3,21.6 9.4,21.7 
		9.1,21.8 9.3,21.8 9.4,21.8 9.5,21.8 9.7,21.8 9.8,21.8 9.7,21.7 	"/>
	<polygon fill="#99CCCC" points="7.8,11.8 7.8,11.8 7.9,11.8 7.9,11.9 7.9,11.9 7.9,11.9 7.9,11.8 7.9,11.8 	"/>
	<polygon fill="#99CCCC" points="7.8,12 7.8,12 7.7,12 7.7,12.1 7.8,12.1 7.8,12.1 	"/>
	<polygon fill="#99CCCC" points="8,12.1 8,12 7.9,11.9 7.9,12 8,12 7.9,12 	"/>
	<polygon fill="#99CCCC" points="7.7,11.8 7.7,11.8 7.7,11.8 7.8,11.8 7.8,11.8 	"/>
	<polygon fill="#99CCCC" points="8.3,12.5 8.3,12.5 8.2,12.5 8.2,12.5 8.2,12.5 	"/>
	<polygon fill="#99CCCC" points="8,12.1 8,12.1 8,12.1 8.1,12.1 8,12 	"/>
	<polygon fill="#99CCCC" points="8.1,12.3 8.1,12.3 8.1,12.2 8,12.2 	"/>
	<polygon fill="#99CCCC" points="7.8,12.1 7.8,12.1 7.8,12.1 7.8,12.2 	"/>
	<polygon fill="#99CCCC" points="8.3,12.3 8.3,12.3 8.3,12.3 	"/>
	<polygon fill="#99CCCC" points="9.7,13.5 9.7,13.5 9.7,13.4 9.6,13.4 	"/>
	<path fill="#99CCCC" d="M12.2,15.4l-0.2,0l-0.1-0.1l-0.2-0.1h-0.2l-0.2-0.1l-0.1,0.1v-0.1L11.2,15l-0.1,0l-0.1,0l-0.2,0.2l-0.1,0
		l0.2,0l0.1-0.1h-0.2L10.5,15l-0.1,0l0.1-0.1l0.1-0.1l0.1-0.1v-0.1l-0.1,0l0-0.2l-0.1,0v0l0,0l-0.1-0.1l-0.1-0.1l-0.1,0l-0.1,0
		l-0.1,0l-0.1-0.1l-0.1,0l0-0.1L9.6,14l-0.1,0h0l0-0.1l-0.1-0.1l-0.1,0l0,0l0.1,0l-0.3,0l0.1,0l-0.1,0l-0.1,0l-0.1,0H8.8H8.7l0-0.1
		l-0.1,0h0l0-0.1l0,0.1l0,0l-0.1,0l-0.1,0l0,0.1l0,0.1H8.3l0-0.1l0,0v-0.1v-0.1l0.1-0.1l0,0l-0.1,0l0,0l0,0l-0.2,0.1l0,0l0,0
		l-0.1,0.1l0,0.1l-0.1,0l-0.1,0.1V14l-0.1-0.1l0,0l-0.1-0.1l-0.1,0l-0.1,0l-0.1,0l-0.1,0h0l0,0l0,0l0,0l0-0.1l0-0.1v-0.1l0-0.1
		l0-0.1l0-0.1l0-0.1v-0.1l-0.1,0l0,0l0,0H6.9l-0.1,0l-0.1,0H6.6h0h0v0l0,0l0,0l0-0.1l0-0.1l0,0l0,0l0,0l0-0.1l0,0l0.1-0.1l0.1-0.1
		v-0.1l-0.1,0l-0.1,0l-0.1,0l0,0l0,0.1l0,0.1l-0.2,0.1l-0.1,0l-0.2,0l0,0l-0.1,0l0-0.1l-0.1-0.1l0-0.1l0,0l0-0.1l0-0.1l0-0.1l0-0.1
		l0,0l0-0.1l0-0.2l0.1-0.1l0.1,0l0.1-0.1l0.1,0l0.2,0l0.1,0.1h0.1l0-0.1h0l0.1,0l0,0l0.2,0l0.1,0.1l0.1-0.1l0.1,0.1l0,0.1l0,0.1h0
		v0.1l0.1,0.1L7.5,12h0.1l0.1-0.2l0-0.2l0-0.2l0-0.2l0.1-0.2L7.8,11l0.2-0.1l0.2-0.1l0-0.1l0.1,0l0.1-0.1l-0.1,0l0.1,0l0,0l0,0.1
		v-0.1l-0.1,0l0-0.1v0l-0.1-0.1l0.1,0l0-0.1l0.1,0l0,0.1l0,0.1l0,0.1l0.1-0.1l0-0.1v0l0.1,0.1l0.1-0.1l0-0.1l0,0l0.1,0l0.1,0H8.5
		l0.2-0.1l0.1,0l0.1,0l0,0h0l0-0.1l0.1-0.1l0.1-0.1l0.1-0.1h0.1l0-0.1l0.3-0.1l0,0.1l0.1,0l-0.2,0L9.4,9.6l0,0.1l0,0l0.2-0.1v0
		L10,9.4L9.7,9.3L9.6,9.2l0.1-0.1H9.6L9.5,9l0.1,0L9.7,9l0-0.1L9.6,8.8H9.5L9.2,9L9,9.2L9.2,9l0.4-0.2l0.1,0l0.5,0l0.2-0.1l0.2-0.1
		l0.1-0.1V8.3l0-0.1l-0.1,0l0-0.1l-0.1-0.1l-0.3,0.1l0-0.1l0.1-0.1l0.2-0.1L10.4,8h-0.1l0-0.1l-0.1-0.1l0.1-0.1L10.1,7l0,0L9.9,7.3
		L9.7,7.4l0-0.2l-0.1,0l0,0l0.1,0v0H9.6l0.1,0l0.1-0.3L9.5,6.8l0-0.1L9.4,6.6l-0.1,0L9.1,6.5L9,6.5l0,0.1L8.9,6.8l0,0.2L8.7,7.2
		l0.1,0.2v0.2L8.7,7.7L8.4,7.9l0,0.4L8.3,8.4l0,0L8.2,8.4l-0.1,0V8.3L8.1,8.3l0,0l0-0.1l0.1-0.4L7.9,7.7L7.8,7.6L7.7,7.6l0-0.1
		L7.6,7.4L7.5,7.3l-0.2,0l0-0.1l0-0.3L7.2,7l0-0.1l0.1-0.3l0.1-0.2l0.3-0.2l0,0l0.2,0l0,0L7.8,6L7.7,6v0l0.2,0.1l0.1,0L8,6L8,6h0.1
		l0.1,0l0.2-0.2L8.2,5.8L8.1,5.6h0l0.1,0.1l0.1,0l0.2-0.1l0-0.1l0.2,0.1l0-0.1l0,0l0.1,0.1v0.1L9,5.6l0.1-0.1l0-0.2l0.1,0l0-0.1
		l-0.1,0l0.1,0L9.1,5.1l0,0L8.9,5L8.9,5.1l0,0l-0.1,0L8.7,5.3L8.5,5.5V5.3l0.1,0l0-0.1L8.5,5.1L8.4,5.2l0-0.2l0.1,0L8.4,4.9l0,0
		l0-0.1l0.1,0v0l0.1,0l0-0.1l0-0.1V4.5l-0.1,0l-0.1,0l0,0l0,0.1l0,0l-0.1,0l0,0.1l0,0.1l0,0L8,4.8l0,0.1l0.1,0.1l0,0l0,0.1l0.1,0
		l0,0l0,0l0,0L8.1,5L8,5l0,0l0.1,0l0,0.1L7.9,5.2l-0.1,0l0,0.1l0,0.1H7.7l0,0.1V5.3l0.1,0l0,0l0.1-0.1l-0.1,0l0,0L7.7,5.1H7.6l0,0.1
		l0.1,0.1l-0.1,0l0-0.1L7.5,5.2L7.3,5.1l0,0L7.2,5H7.1l0,0L7,4.8l-0.2,0l-0.1,0l0,0l0.3,0L6.9,4.9H6.8L6.7,5l0,0.2v0l0,0.1l0,0.1
		l0-0.2l0,0V5L6.6,4.9H6.3L6.1,4.8l0.1,0l0.1,0l0-0.1L6.2,4.6H6.1L5.9,4.4L5.8,4.3l-0.1,0L5.7,4.3H5.5l0.1-0.1l0-0.1l-0.1,0L5.4,4.3
		l0,0l0-0.1l0-0.2h0v0.1L5.2,4.2l0,0l0,0L4.9,4.2l0-0.1L4.8,4.2l-0.1,0l0.1-0.1l0.2,0l0.2,0l0-0.1L4.7,4.1L4.6,4.1l0,0.1l0-0.1l0,0
		v0.1L4.3,4.1L4.3,3.9L4.1,3.8L4,3.7H3.9L3.8,3.6H3.7l0-0.1l0-0.1l0,0l-0.1,0L3.4,3.5l0.1-0.1l-0.1,0h0l0,0l0.1,0L3.4,3.3l-0.1,0
		H3.3l0-0.1l-0.2,0l0.1-0.1V3.1L3,3.1l-0.1,0l-0.1,0v0l-0.1,0l0-0.1H2.6L2.3,3.2L2.2,3.3l-0.1,0l-0.2,0l0,0L1.8,3.4H1.7l0.1,0.2
		l0,0.2l0.2,0.1L1.9,3.9l0,0l0.2,0L2,4L1.9,4l0,0V3.9V3.8h0l0,0.2l0.1,0l0,0.1L1.8,4l0,0L1.7,4L1.6,4l0-0.1l0.1-0.1l-0.1,0L1.4,3.9
		l0,0H1.4v0L1.2,3.9l0,0l0,0.1l0.1,0l0.1,0.1l0.1,0l-0.1,0l0,0l0,0l0,0.1l0,0.1l0.1,0.1h0.1l0,0l0,0l0.2-0.1l0.1,0l0,0.1l-0.1,0v0.1
		l0,0.1L1.3,4.7l0,0L1.2,4.7l-0.1,0l0-0.1L1,4.7L0.9,4.8h0l-0.1,0L0.8,4.9l0,0.1h0l0,0.1l0,0.1l0,0.1l0.1,0.1l0.1,0l0.1,0l0,0.1
		l0,0.1l0,0L0.7,5.2L0.6,5.3l0,0.1v0.1l0.1,0h0.1l0.1-0.1L0.8,5.6L0.8,5.7l0,0.1H0.7l0.1,0l0.2-0.1l0,0.1h0l0,0.1l0.1-0.2l0,0.1
		l0.2-0.1L1.1,5.9L1,6L1,6.1v0l0,0L0.9,6.2l0,0.1l-0.1,0L0.6,6.3L0.5,6.4v0.1l0,0l0,0v0l0,0H0.4l0,0v0v0l0,0l0.1,0l0,0l0.1,0l0.1,0
		l0,0l0.1-0.1l0.1-0.1l0.1-0.1l0.2-0.1l0.1-0.1L1.4,6l0.2-0.2l0,0l0,0l0.1-0.1l0.1-0.1l0,0l0,0h0l0.1-0.1l0.1-0.1l0.1-0.1l0,0.1h0.1
		L2.1,5.5l0,0l-0.1,0l0,0L1.9,5.6L1.9,5.7L1.8,5.7l0,0l0.1,0L1.7,5.8l0,0h0.1l0.1,0L2,5.7l0.1,0l0.1-0.1l0,0l0-0.1h0l0,0h0.1l0.1,0
		l-0.1,0l0,0l0.1,0.1l0,0l0.1,0v0l0,0l0.1,0.1h0.1l0.1,0.1l0.1,0l0,0.1l0,0h0.1L3,5.9L3,6l0,0V6l0,0.1l0,0L3,6.1h0l0,0l0,0.1l0,0.1
		l0.1,0l0-0.1l0,0l0,0l0,0.1l0,0l0.1-0.2l0,0.2l0,0l0,0l0,0.1l0,0.1l0,0.1l0,0l0,0.1l0,0.1l0,0h0l0,0.1l0,0.1l0,0l0,0l0.1,0l0,0V7
		l0,0.1l0,0.1l0.1-0.1L3.5,7l0,0L3.5,7.1L3.4,7.3l0,0.2l0.1-0.1L3.5,7.4l0,0.4l0,0.1l0.2,0.2l0,0.2l0.1,0.1l0,0l0,0l0,0l0,0.1l0,0.2
		L3.7,8.6l0-0.1V8.5L3.6,8.4l0,0.3l0,0.2L3.4,9.1L3.3,9.3l0,0.2L3.2,9.7l0,0.1l0,0.2l0,0.1l0.1,0v0.1l0,0v0.1l0.1,0l0,0.1l0.1,0.2
		l0,0.1l0.1,0l0.1,0.1l0.1,0.1l0,0.1l0,0.2l0,0.2l0.1,0.1L4,11.5v0.1l-0.1,0L4,11.7l0,0l0.1,0.1v0.1l0.2,0.2l0,0.1l0.1-0.1l0-0.1
		l0-0.1l0-0.1l-0.1-0.3l0,0.1l0-0.1l0,0v-0.1L4,11.3l-0.1-0.1L4,11l0.2,0.1l0,0.2l0.1,0.2l0.1,0.1h0v0.1l0.1,0.1l0,0.1l0,0.1L4.6,12
		l0.1,0.2l0.1,0.2l0,0.1l0,0.1v0l0,0l0.1,0.1L5,12.8l0.1,0l0,0l0,0l0,0l0.2,0.1L5.4,13l0.2,0.1L5.8,13h0.1l0.2,0.1l0.1,0.1l0.1,0.1
		l0.1,0l0.1,0l0.1,0l0.1,0l0,0l0,0l0,0l0.1,0.1l0.1,0.1l0.1,0v0.1l0,0.1l0.1,0l0,0l0.1,0.1L7,13.8v0.1l0,0l0,0l0,0.1l0,0l0,0l0.1,0
		L7.3,14l0,0l0,0.1l0.1,0l0-0.1l0.1-0.1h0.1l0,0h0l0,0l0,0.1l0.1,0.1v0v0.1v0.1l0,0.1l0,0l0,0l-0.1,0.1l0,0.1l0,0.1l-0.1,0l-0.1,0
		l0,0.1l0,0.1l0,0.1l0,0l0,0.1l0,0l0.1,0l0,0l0,0v0.1h0l-0.1,0l-0.1,0.1v0.2l0.2,0.1l0.1,0.2l0.1,0.1l0.1,0.1l0.1,0.1l0.1,0.1l0,0.2
		L8,16.6l0.2,0.1l0.2,0.1l0.1,0.1l0.1,0.1l0,0.2v0.2v0.1l0,0.1l0,0.2v0.2l0,0.2l0,0.2l0,0.2v0.1l0,0.2v0.1v0.1L8.5,19l0,0.2
		l-0.1,0.1l0.1,0.2l0,0.1l0,0.1l0,0.1l0.1,0h0.1V20v0.1v0.1l0.1,0l0,0.1h0l0,0.2l0,0.1l-0.1-0.1H8.5l0,0.1l0.1,0l0.1,0.1l0,0.1h0.1
		l0.1,0.1H8.7v0.1l0,0.1l0.1,0H8.7l0,0.1l0,0l0.1,0.1v0l0.1,0.1l0.1,0.1l0,0l0.1,0v0.1l-0.1,0v0.1l0,0l0,0.1l0.1,0l0,0l0.1,0v0
		l0-0.1L9,21.5l0.1,0l0.1,0.1l-0.1,0l0,0l0,0l0.1,0l0,0v-0.1l0-0.1l0.1-0.1h0.1l-0.1-0.1l0-0.1l0-0.1L9.4,21v-0.1l0.1-0.1l0-0.1
		l-0.1,0l-0.1-0.1v-0.1l0.1-0.1l0.1,0v-0.1v-0.1l0.1,0l-0.1,0l0,0l0,0l0,0l0,0v-0.1l0,0H9.5l0-0.1l0-0.1v0l0.1,0l0.2,0l0,0l0-0.1
		l0-0.1v-0.1l-0.1-0.1l0.2,0l0.2,0l0.2-0.1l0.1-0.1l0-0.1l0-0.1l-0.1,0V19v0l-0.1-0.1l-0.1,0l0,0l0-0.1l0.1,0.1l0.1,0l0.1,0l0.1,0
		l0.1,0l0.1-0.1l0.1-0.1l0-0.1l0.1-0.1l0.1-0.1l0-0.1l0.1-0.1l0-0.1l0-0.1l0-0.2l0.1-0.1l0.1-0.1l0.2-0.1l0.2,0h0.1l0.1-0.1l0-0.1
		l0.1-0.2v-0.1l0.1-0.1l0-0.2l0-0.2v-0.1l0.1-0.1l0.1,0l0.1-0.2l0,0l0,0l0.1-0.1l0.1-0.1l0-0.2L12.2,15.4L12.2,15.4z M8,9.8L7.9,9.8
		H7.7l-0.2,0l0.1-0.1l0,0.1l0.2,0L8,9.8L8,9.7L8,9.8L8,9.8z M7.9,9.3L7.9,9.3L7.9,9.3L7.8,9.6L7.7,9.6l0-0.1l0-0.1l-0.1,0l-0.1,0
		l0-0.1l0.1-0.1V9.3L7.5,9.2l0,0l0,0.1h0L7.3,9.4l0,0.1l0,0.1l0,0.1L7.2,9.8H7.1V9.7l0-0.1l0-0.1l0.1-0.2L7.2,9.4l0.2-0.2l0.1,0h0.1
		h0.1l0,0l-0.1,0v0H7.4l0,0l-0.1,0l0,0H7.2L7.2,9l0,0h0L7.1,9l-0.2,0V9L6.9,9h0l0.1-0.1L7,8.9l0.1-0.1l0.1-0.1l0.2,0l0.1,0.1h0.1
		v0.2l0,0.1l0.2,0.1L7.9,9.3l0.2,0l0,0.1L7.9,9.3L7.9,9.3z M8.2,9.5L8.2,9.5L8.2,9.5l0.2,0l0.1-0.1l0,0L8.5,9.5H8.2l0,0.1H8L8,9.6
		L8,9.5L8.2,9.5z M6.9,13.6L6.9,13.6l-0.1-0.1L6.9,13.6L6.9,13.6L6.9,13.6z M8.5,16.6L8.5,16.6l0.2,0.1l0,0.1l0,0h0L8.5,16.6
		L8.5,16.6z"/>
	<polygon fill="#99CCCC" points="8.4,12.8 8.4,12.9 8.5,12.8 8.6,12.8 8.7,12.8 8.8,12.8 8.6,12.7 8.6,12.7 8.5,12.6 8.4,12.7 
		8.4,12.6 8.3,12.6 8.2,12.6 8.3,12.7 8.3,12.7 8.3,12.8 8.1,12.8 8.1,12.8 8.2,12.8 	"/>
	<polygon fill="#99CCCC" points="7.7,12.8 7.7,12.8 7.8,12.9 7.9,12.8 7.8,12.8 7.7,12.8 	"/>
	<polygon fill="#99CCCC" points="10.3,6 10.4,6.1 10.5,6.2 10.5,6.1 10.6,6 10.8,5.9 10.8,5.9 10.7,5.8 10.6,5.8 10.6,5.7 10.4,5.6 
		10.4,5.5 10.3,5.4 10.4,5.4 10.5,5.4 10.4,5.3 10.5,5.3 10.4,5.2 10.4,5.2 10.4,5.2 10.4,5.1 10.3,5 10.3,5 10.3,4.9 10.2,4.9 
		10.1,4.9 10.1,4.8 10,4.8 10.1,4.8 10,4.7 10.1,4.7 10.1,4.6 9.9,4.6 9.8,4.6 9.8,4.6 9.8,4.7 9.7,4.6 9.7,4.6 9.5,4.7 9.7,4.6 
		9.7,4.5 9.7,4.4 9.7,4.3 9.5,4.3 9.3,4.4 9.2,4.5 9.2,4.6 9.2,4.6 9.1,4.7 9.2,4.7 9.1,4.8 8.9,4.8 9.1,4.7 9.1,4.6 9.1,4.5 
		9.1,4.4 9.2,4.3 9.3,4.3 9.4,4.2 9.2,4.2 9,4.3 8.9,4.4 8.8,4.5 8.8,4.5 8.8,4.5 8.7,4.6 8.9,4.7 8.9,4.8 8.7,4.7 8.8,4.9 8.9,4.9 
		9,5 9.1,5 9.2,5.1 9.3,5.1 9.3,5 9.4,5.1 9.5,5.1 9.5,5 9.5,5 9.6,5 9.6,5.1 9.6,5.2 9.7,5.3 9.6,5.3 9.6,5.4 9.7,5.3 9.7,5.4 
		9.8,5.5 9.8,5.6 9.8,5.7 9.7,5.7 9.6,5.8 9.6,5.8 9.6,5.9 9.6,6 9.5,6 9.4,6 9.3,5.9 9.2,5.9 9.1,6 9.1,6.1 9.2,6.2 9.3,6.2 
		9.4,6.1 9.4,6.2 9.5,6.1 9.5,6.2 9.6,6.3 9.6,6.3 9.6,6.4 9.6,6.4 9.7,6.5 9.8,6.6 9.9,6.7 10,6.7 10.1,6.7 10.1,6.7 10,6.5 
		9.9,6.4 10,6.5 10.2,6.6 10.2,6.6 10.3,6.6 10.3,6.5 10.3,6.3 10.2,6.2 10.2,6.1 10.1,6 10.2,5.9 10.2,5.9 10.3,5.9 	"/>
	<polygon fill="#99CCCC" points="9.7,3.7 10,3.8 10,3.7 10.1,3.7 10.1,3.8 10.1,3.8 10.2,3.8 10.3,3.8 10.4,3.7 10.3,3.7 10.1,3.6 
		10.2,3.5 10.3,3.6 10.4,3.6 10.5,3.5 10.5,3.5 10.7,3.5 10.8,3.4 10.9,3.3 10.8,3.2 10.7,3.2 10.8,3.1 10.9,3.1 11.1,3.2 11.2,3.1 
		11.4,3.1 11.5,3 11.6,2.9 11.7,2.9 11.8,2.8 12.1,2.7 11.9,2.7 11.8,2.7 12,2.7 12.2,2.7 12.3,2.6 12.4,2.5 12.3,2.3 12.2,2.3 
		12,2.4 12.2,2.3 12,2.2 12,2.2 11.9,2.2 11.9,2.2 11.8,2.1 11.8,2.2 11.7,2.3 11.7,2.1 11.5,2.1 11.5,2.3 11.4,2.1 11.3,2.1 
		11.1,2.2 11.1,2.3 11,2.3 11,2.2 10.9,2.1 10.8,2.2 10.9,2.3 10.7,2.2 10.7,2.2 10.5,2.2 10.3,2.3 10.3,2.3 10.5,2.4 10.2,2.5 
		10.7,2.5 10.3,2.5 10.4,2.6 10.6,2.5 10.9,2.5 10.6,2.6 10.4,2.7 10.6,2.7 10.8,2.7 11,2.7 11.2,2.6 11,2.7 11.1,2.7 10.9,2.8 
		10.7,2.8 10.6,2.8 10.6,2.9 10.7,3 10.6,3 10.5,2.9 10.5,2.8 10.4,2.7 10.3,2.7 10.3,2.9 10.3,3 10.4,3.1 10.4,3.1 10.4,3.2 
		10.3,3.3 10.2,3.2 10.2,3.1 10,3.4 10.1,3.4 10.2,3.4 10,3.5 9.9,3.5 9.9,3.4 9.9,3.3 9.8,3.3 9.7,3.4 9.7,3.5 9.6,3.5 9.5,3.5 
		9.5,3.6 9.5,3.6 9.6,3.7 	"/>
	<polygon fill="#99CCCC" points="7.4,4.7 7.5,4.7 7.6,4.8 7.6,4.7 7.6,4.6 7.5,4.6 7.5,4.6 7.5,4.5 7.5,4.4 7.5,4.4 7.5,4.3 
		7.6,4.2 7.6,4.1 7.6,4 7.6,4 7.5,3.9 7.4,4 7.4,4.1 7.3,4.2 7.3,4.2 7.2,4.2 7.3,4.1 7.3,4 7.3,3.9 7.2,3.9 7.2,4 7.2,4.1 7.1,4 
		7,4 7.1,4 7.1,4 7,3.9 7,3.9 6.8,3.9 6.9,3.9 7,3.8 6.8,3.8 6.7,3.8 6.6,3.8 6.5,3.8 6.5,3.9 6.5,3.9 6.4,3.9 6.4,4 6.3,4 6.4,4 
		6.4,4.1 6.6,4.1 6.4,4.1 6.3,4.1 6.2,4.2 6.3,4.2 6.4,4.3 6.6,4.3 6.7,4.4 6.8,4.4 6.6,4.4 6.5,4.4 6.4,4.4 6.2,4.4 6.2,4.4 
		6.2,4.5 6.3,4.6 6.4,4.6 6.4,4.6 6.4,4.7 6.5,4.7 6.7,4.8 6.8,4.8 7,4.7 7.1,4.7 7.1,4.8 7.1,4.8 7.3,4.9 7.4,4.9 7.4,4.8 7.4,4.8 
		7.3,4.8 7.4,4.7 	"/>
	<polygon fill="#99CCCC" points="9.7,3.2 9.8,3.2 9.8,3.2 9.9,3.2 9.9,3.1 10,3 10,3.1 10.1,3.1 10.2,3 10.3,3 10.2,2.9 10.2,2.9 
		10.2,2.8 10.2,2.7 10.2,2.6 10.1,2.6 10.1,2.5 10.2,2.4 10.1,2.3 10,2.4 9.9,2.4 9.9,2.5 9.9,2.5 9.7,2.5 9.7,2.5 9.7,2.6 9.8,2.6 
		9.7,2.7 9.6,2.6 9.5,2.7 9.7,2.7 9.5,2.8 9.6,2.8 9.8,2.9 9.8,3 9.6,2.9 9.5,3 9.5,3.1 9.6,3.2 	"/>
	<polygon fill="#99CCCC" points="5.9,3.9 5.9,4 5.9,4 6,4 6.1,4 6.2,4 6.2,3.9 6.3,3.9 6.3,3.9 6.4,3.9 6.5,3.8 6.6,3.8 6.7,3.8 
		6.8,3.7 6.9,3.7 6.9,3.6 6.9,3.5 6.9,3.5 6.8,3.5 6.8,3.5 6.7,3.5 6.7,3.5 6.7,3.5 6.6,3.5 6.7,3.4 6.7,3.4 6.6,3.4 6.5,3.4 
		6.5,3.3 6.3,3.3 6.3,3.4 6.3,3.5 6.1,3.6 6.1,3.6 6.1,3.6 6.1,3.6 6.1,3.6 6,3.6 5.9,3.7 5.8,3.8 5.9,3.9 	"/>
	<polygon fill="#99CCCC" points="9.1,3.6 9.1,3.7 9.1,3.8 9,3.8 9,3.9 9.1,4 9.2,4 9.4,4.1 9.6,4.1 9.7,4.1 9.9,4.1 9.9,4.1 10,4.1 
		10.1,4 10.1,4 10,3.9 9.8,3.9 9.7,3.9 9.6,3.9 9.4,3.9 9.3,3.8 9.3,3.8 9.3,3.7 9.3,3.7 9.4,3.7 9.3,3.6 9.2,3.5 9.2,3.5 9.1,3.4 
		9,3.4 8.9,3.5 9,3.5 	"/>
	<polygon fill="#99CCCC" points="7.7,3.3 7.7,3.2 7.6,3.2 7.6,3.2 7.6,3.1 7.4,3.1 7.3,3.1 7.2,3.2 7.1,3.3 7.2,3.4 7.2,3.4 
		7.4,3.3 7.4,3.3 7.3,3.4 7.6,3.4 7.5,3.5 7.3,3.5 7.2,3.5 7.3,3.6 7.7,3.5 7.7,3.6 7.9,3.6 8,3.5 8.1,3.4 8.1,3.4 8,3.4 8,3.3 
		8,3.2 8,3.1 7.9,3.2 7.9,3.3 7.8,3.4 7.8,3.4 7.7,3.4 7.6,3.4 	"/>
	<polygon fill="#99CCCC" points="10.8,9.3 10.8,9.2 10.9,9.2 10.9,9.1 10.8,9 10.8,9 10.8,9 10.8,8.9 10.7,8.9 10.6,8.9 10.6,8.8 
		10.6,8.8 10.5,8.8 10.6,8.6 10.7,8.5 10.7,8.6 10.5,8.6 10.4,8.7 10.4,8.9 10.4,8.9 10.2,9 10.3,9 10.2,9.1 10.2,9.1 10.5,9.2 
		10.6,9.2 10.5,9.2 10.7,9.2 10.7,9.1 10.7,9.2 10.7,9.3 	"/>
	<polygon fill="#99CCCC" points="8.3,4.1 8.4,4.1 8.4,4.1 8.4,4.1 8.4,4.1 8.4,4 8.3,4 8.2,4 8.1,4 8.1,4 8.1,4.1 8.1,4.1 8.1,4.1 
		8,4.2 8,4.2 7.9,4.2 7.9,4.1 7.8,4.1 7.8,4.2 7.9,4.3 7.9,4.4 7.9,4.4 7.9,4.5 8,4.5 8,4.5 8,4.4 8.1,4.4 8.1,4.5 8.2,4.5 8.2,4.4 
		8.3,4.3 8.3,4.2 8.3,4.2 8.2,4.2 8.2,4.1 	"/>
	<polygon fill="#99CCCC" points="8.8,6.1 8.8,6.1 8.8,6 8.6,5.8 8.6,5.9 8.6,5.7 8.5,5.8 8.4,5.9 8.3,6.1 8.2,6.2 8.2,6.2 8.3,6.2 
		8.3,6.3 8.4,6.3 8.5,6.2 8.6,6.1 8.6,6.1 8.6,6.2 8.8,6.3 8.9,6.2 	"/>
	<polygon fill="#99CCCC" points="8.4,3.3 8.3,3.3 8.3,3.4 8.3,3.5 8.3,3.6 8.5,3.6 8.4,3.7 8.5,3.8 8.7,3.7 8.7,3.6 8.8,3.4 
		8.6,3.4 8.6,3.4 8.5,3.5 8.5,3.4 8.4,3.5 8.4,3.4 	"/>
	<polygon fill="#99CCCC" points="7.1,3 7,3.1 7.1,3.1 7.2,3 7.2,3 7.2,3 7.2,3 7.4,2.9 7.3,3 7.3,3.1 7.4,3 7.5,3 7.5,3 7.6,3 
		7.6,2.9 7.7,2.9 7.7,2.8 7.6,2.8 7.6,2.8 7.5,2.8 7.3,2.8 7.2,2.9 7.1,2.9 6.9,2.9 6.9,3 7,3 	"/>
	<polygon fill="#99CCCC" points="8.7,4.4 8.8,4.3 9,4.2 8.8,4.1 8.6,4.1 8.5,4.2 8.4,4.3 8.4,4.4 8.5,4.5 8.6,4.3 8.5,4.3 8.5,4.3 	
		"/>
	<polygon fill="#99CCCC" points="3.5,8.3 3.6,8.4 3.7,8.4 3.6,8.3 3.6,8.2 3.6,8.1 3.4,7.9 3.3,7.9 3.3,8.1 3.4,8.2 	"/>
	<polygon fill="#99CCCC" points="8.1,2.9 8.2,2.9 8.1,2.9 8.1,2.8 8.2,2.8 8.3,2.8 8.1,2.7 8,2.8 7.9,2.8 7.9,2.9 7.9,3 8,3 	"/>
	<polygon fill="#99CCCC" points="7.8,5.1 7.9,5.1 7.9,5 7.9,4.9 7.9,4.8 7.8,4.8 7.7,4.9 7.6,4.9 7.7,5 	"/>
	<polygon fill="#99CCCC" points="9.7,4.6 9.9,4.6 9.9,4.6 10,4.6 10,4.4 9.8,4.4 9.8,4.4 9.7,4.4 9.7,4.4 9.7,4.5 	"/>
	<polygon fill="#99CCCC" points="8.6,3.8 8.7,3.9 8.8,3.9 8.9,3.8 8.9,3.7 8.9,3.7 8.8,3.7 	"/>
	<polygon fill="#99CCCC" points="9.6,5.6 9.7,5.5 9.6,5.4 9.5,5.5 9.4,5.5 9.4,5.6 9.5,5.6 	"/>
	<polygon fill="#99CCCC" points="7.7,4.1 7.7,4 7.8,4 7.8,4 7.8,3.9 7.7,3.9 7.6,3.9 7.6,4 	"/>
	<polygon fill="#99CCCC" points="8.3,2.7 8.4,2.7 8.4,2.7 8.2,2.7 8.1,2.7 8.2,2.7 	"/>
	<polygon fill="#99CCCC" points="8.5,6.4 8.4,6.5 8.5,6.5 8.6,6.4 8.7,6.4 8.5,6.3 	"/>
	<polygon fill="#99CCCC" points="9.8,8.7 9.7,8.8 9.8,8.8 9.9,8.9 10,8.9 10,8.9 9.9,8.8 	"/>
	<polygon fill="#99CCCC" points="8.8,6.6 8.9,6.5 8.9,6.5 8.8,6.5 8.7,6.6 	"/>
	<polygon fill="#99CCCC" points="9.1,6.4 9.1,6.4 9.1,6.3 9,6.3 	"/>
	<polygon fill="#99CCCC" points="9.1,6.3 9.2,6.3 9.1,6.3 9.1,6.3 	"/>
	<polygon fill="#99CCCC" points="8.1,12.5 8,12.5 8,12.5 7.8,12.4 7.7,12.3 7.6,12.3 7.4,12.2 7.3,12.2 7.2,12.3 7.1,12.3 7,12.4 
		7.1,12.4 7.2,12.3 7.4,12.3 7.3,12.3 7.5,12.4 7.7,12.4 7.7,12.5 7.8,12.5 7.7,12.6 8.2,12.6 	"/>
	<polygon fill="#99CCCC" points="10.4,21.2 10.4,21.2 10.3,21.2 10.3,21.3 10.2,21.3 10.3,21.4 10.4,21.3 10.4,21.3 10.4,21.2 	"/>
	<polygon fill="#99CCCC" points="10.2,21.2 10.1,21.3 10.2,21.3 10.2,21.3 10.3,21.2 	"/>
	<polygon fill="#99CCCC" points="8.9,12.8 9,12.9 9.1,12.8 9,12.8 8.9,12.8 	"/>
	<polygon fill="#99CCCC" points="32.5,18.1 32.5,18.1 32.5,18.1 32.5,18 32.4,17.9 32.4,17.9 32.4,17.8 32.3,17.8 32.4,17.8 
		32.4,17.7 32.4,17.7 32.4,17.7 32.3,17.6 32.3,17.7 32.3,17.7 32.2,17.6 32.2,17.6 32.2,17.5 32.2,17.4 32.2,17.4 32.2,17.4 
		32.2,17.4 32.1,17.3 32.1,17.3 32.1,17.3 32,17.3 31.9,17.2 31.9,17.2 31.9,17.1 31.9,17.1 31.9,17 31.9,16.9 31.9,16.9 31.9,16.7 
		31.8,16.7 31.8,16.6 31.7,16.6 31.7,16.7 31.7,16.6 31.7,16.5 31.7,16.5 31.7,16.4 31.7,16.4 31.7,16.4 31.7,16.3 31.7,16.3 
		31.6,16.2 31.6,16.2 31.6,16.2 31.6,16.4 31.5,16.4 31.5,16.4 31.5,16.4 31.5,16.5 31.5,16.5 31.5,16.6 31.5,16.7 31.4,16.9 
		31.4,17 31.3,17.1 31.3,17.1 31.2,17 31.2,17 31.1,16.9 31,16.8 30.9,16.8 30.9,16.8 30.9,16.7 30.8,16.7 30.9,16.6 30.9,16.6 
		30.9,16.5 30.9,16.5 30.9,16.5 30.9,16.5 31,16.5 30.9,16.4 31,16.4 31,16.4 30.9,16.4 30.9,16.4 30.9,16.4 30.9,16.4 30.9,16.4 
		30.8,16.4 30.8,16.4 30.8,16.4 30.7,16.4 30.7,16.3 30.6,16.3 30.6,16.3 30.5,16.3 30.5,16.3 30.5,16.3 30.5,16.3 30.5,16.3 
		30.5,16.4 30.5,16.4 30.4,16.4 30.4,16.4 30.3,16.4 30.3,16.4 30.2,16.5 30.3,16.5 30.2,16.5 30.2,16.6 30.2,16.6 30.2,16.7 
		30.2,16.7 30.2,16.7 30.1,16.7 30.1,16.7 30.1,16.7 30.1,16.7 30,16.7 30,16.7 30,16.6 29.9,16.6 29.9,16.5 29.9,16.6 29.9,16.6 
		29.8,16.6 29.8,16.6 29.8,16.6 29.7,16.6 29.7,16.7 29.7,16.7 29.7,16.7 29.7,16.7 29.6,16.8 29.6,16.8 29.6,16.9 29.6,16.9 
		29.6,16.8 29.5,16.9 29.5,16.8 29.5,16.8 29.5,16.9 29.5,17 29.5,16.9 29.5,17 29.5,16.9 29.4,16.9 29.4,16.9 29.4,16.9 29.3,17 
		29.3,17 29.3,17.1 29.3,17.1 29.2,17.2 29,17.3 29,17.3 28.9,17.3 28.8,17.3 28.8,17.4 28.7,17.4 28.6,17.4 28.5,17.5 28.5,17.5 
		28.4,17.6 28.4,17.6 28.4,17.5 28.4,17.6 28.4,17.6 28.3,17.7 28.3,17.8 28.3,17.8 28.3,17.9 28.3,18 28.3,18.1 28.3,18.1 28.3,18 
		28.3,18 28.3,18 28.3,18 28.3,18.1 28.3,18.1 28.3,18 28.2,18.1 28.3,18.2 28.3,18.3 28.3,18.3 28.3,18.4 28.4,18.5 28.3,18.6 
		28.4,18.8 28.4,18.8 28.4,18.9 28.3,18.9 28.3,19.1 28.3,19.1 28.3,19.1 28.2,19.1 28.3,19.2 28.3,19.2 28.4,19.3 28.5,19.3 
		28.6,19.3 28.6,19.2 28.7,19.2 28.7,19.2 28.8,19.1 28.9,19.1 29,19.1 29,19.2 29.1,19.1 29.1,19.1 29.1,19.2 29.2,19.1 29.2,19.1 
		29.2,19 29.3,19 29.5,18.9 29.6,18.9 29.8,18.9 29.9,18.9 30,18.9 30.2,18.9 30.2,18.9 30.2,19 30.3,19 30.3,19 30.3,19 30.3,19 
		30.3,19.1 30.3,19.1 30.4,19.1 30.4,19.2 30.4,19.2 30.4,19.3 30.4,19.3 30.4,19.4 30.5,19.4 30.5,19.3 30.5,19.3 30.6,19.2 
		30.6,19.2 30.7,19.1 30.7,19.1 30.7,19 30.7,19.1 30.7,19.2 30.7,19.2 30.6,19.3 30.6,19.4 30.6,19.4 30.5,19.4 30.6,19.4 
		30.6,19.4 30.7,19.3 30.7,19.3 30.7,19.4 30.7,19.5 30.7,19.5 30.7,19.5 30.8,19.5 30.8,19.5 30.8,19.5 30.8,19.7 30.8,19.7 
		30.8,19.8 30.8,19.8 30.8,19.9 30.9,19.9 30.9,19.9 31,20 31.1,20 31.1,20 31.2,20 31.3,19.9 31.2,19.9 31.3,19.9 31.3,20 31.3,20 
		31.3,20 31.3,19.9 31.3,20 31.3,20 31.4,20 31.4,20.1 31.4,20.1 31.4,20 31.5,20 31.6,19.9 31.7,19.9 31.8,19.9 31.9,19.7 32,19.5 
		32.1,19.4 32.1,19.3 32.2,19.3 32.2,19.2 32.3,19.1 32.3,19.1 32.3,19.1 32.4,18.9 32.4,18.8 32.5,18.6 32.5,18.5 32.5,18.4 
		32.5,18.2 	"/>
	<polygon fill="#99CCCC" points="34.1,20.8 34.1,20.7 34,20.7 34,20.8 34,20.7 34,20.7 34,20.7 34,20.6 34,20.6 34,20.7 34,20.7 
		33.9,20.8 33.9,20.8 33.9,20.9 33.8,21 33.7,21.1 33.6,21.1 33.5,21.2 33.5,21.2 33.4,21.2 33.4,21.3 33.4,21.3 33.3,21.3 
		33.3,21.3 33.3,21.4 33.2,21.4 33.2,21.4 33.2,21.4 33.2,21.4 33.2,21.4 33.2,21.5 33.2,21.5 33.1,21.5 33.1,21.5 33.2,21.5 
		33.1,21.6 33.2,21.6 33.2,21.6 33.2,21.6 33.2,21.6 33.3,21.6 33.3,21.6 33.3,21.7 33.3,21.7 33.5,21.7 33.5,21.6 33.5,21.6 
		33.6,21.6 33.6,21.6 33.6,21.5 33.6,21.5 33.7,21.4 33.7,21.4 33.7,21.3 33.8,21.3 33.8,21.2 33.8,21.2 33.9,21.2 33.9,21.2 
		33.9,21.2 33.9,21.2 33.9,21.1 34,21.1 34,21 34,20.9 34.1,20.9 34.1,20.8 34.1,20.8 	"/>
	<polygon fill="#99CCCC" points="34.7,20 34.6,20 34.5,20 34.5,20 34.5,19.9 34.4,19.9 34.4,20 34.4,20 34.4,20 34.3,20.1 34.3,20 
		34.3,19.9 34.3,19.9 34.3,19.8 34.3,19.8 34.3,19.7 34.3,19.7 34.3,19.7 34.2,19.7 34.2,19.6 34.2,19.6 34.2,19.6 34.2,19.6 
		34.2,19.7 34.2,19.9 34.2,19.9 34.3,19.9 34.3,19.9 34.2,19.9 34.2,20 34.3,20 34.3,20 34.2,20 34.2,20.2 34.2,20.2 34.2,20.2 
		34.2,20.3 34.1,20.4 34.1,20.4 34.1,20.5 34.1,20.5 34.2,20.5 34.2,20.6 34.1,20.7 34.1,20.8 34.1,20.8 34.1,20.8 34.1,20.8 
		34.2,20.7 34.3,20.7 34.3,20.6 34.5,20.5 34.7,20.1 34.7,20 34.7,20 	"/>
	<polygon fill="#99CCCC" points="32,15.5 31.9,15.5 31.8,15.4 31.8,15.4 31.7,15.4 31.6,15.3 31.5,15.3 31.4,15.3 31.3,15.2 
		31.1,15.1 31.1,15.2 31.1,15.2 31,15.2 30.9,15.4 30.9,15.4 30.8,15.3 30.8,15.3 30.8,15.3 30.8,15.3 30.8,15.3 30.7,15.2 
		30.8,15.1 30.7,15.1 30.7,15.1 30.6,15 30.6,15 30.5,15 30.4,15.1 30.4,15.1 30.4,15.1 30.5,15.1 30.5,15.2 30.5,15.2 30.5,15.2 
		30.6,15.2 30.7,15.2 30.7,15.3 30.7,15.3 30.7,15.3 30.6,15.3 30.6,15.3 30.5,15.3 30.5,15.3 30.6,15.3 30.6,15.3 30.6,15.4 
		30.6,15.4 30.6,15.4 30.6,15.4 30.7,15.4 30.7,15.3 30.7,15.3 30.7,15.3 30.7,15.4 30.7,15.4 30.8,15.4 30.7,15.4 30.8,15.4 
		30.8,15.4 30.8,15.4 30.8,15.4 30.9,15.5 30.9,15.5 31.1,15.5 31.2,15.6 31.2,15.7 31.2,15.8 31.3,15.8 31.2,15.9 31.3,15.9 
		31.4,15.9 31.5,16 31.7,16 31.7,16 31.7,16 31.7,15.9 31.7,15.9 31.7,15.9 31.8,15.9 31.8,15.8 31.8,15.9 31.8,15.9 31.8,15.8 
		31.9,15.8 31.9,15.9 32,15.9 32,15.9 32,15.9 32.1,16 32.1,16 32.1,16 32.1,16.1 32.2,16.1 32.3,16.1 32.4,16.2 32.4,16.2 
		32.5,16.2 32.5,16.2 32.5,16.2 32.5,16.2 32.5,16.1 32.4,16.1 32.4,16.1 32.4,16.1 32.4,16 32.4,16 32.3,16 32.3,16 32.3,15.9 
		32.3,15.9 32.2,15.8 32.1,15.8 32.2,15.7 32.2,15.7 32,15.6 32,15.5 	"/>
	<polygon fill="#99CCCC" points="32.7,15.5 32.6,15.5 32.6,15.5 32.6,15.6 32.5,15.6 32.5,15.6 32.5,15.6 32.5,15.5 32.5,15.5 
		32.4,15.6 32.4,15.6 32.4,15.6 32.3,15.6 32.3,15.6 32.3,15.6 32.3,15.7 32.4,15.7 32.4,15.7 32.4,15.7 32.5,15.7 32.6,15.6 
		32.6,15.6 32.7,15.6 32.7,15.6 32.7,15.5 32.7,15.5 32.7,15.5 32.7,15.5 32.6,15.5 	"/>
	<polygon fill="#99CCCC" points="32.8,15.4 32.7,15.4 32.6,15.3 32.5,15.3 32.6,15.3 32.7,15.4 32.8,15.4 32.8,15.5 32.8,15.5 
		32.8,15.5 32.8,15.4 	"/>
	<polygon fill="#99CCCC" points="33,15.7 33,15.6 33,15.6 33,15.6 33,15.5 33,15.6 33,15.6 33,15.7 33,15.7 33,15.8 33.1,15.8 
		33.1,15.7 33.1,15.7 	"/>
	<polygon fill="#99CCCC" points="33.7,16.1 33.7,16.1 33.7,16.1 33.7,16 33.6,16 33.6,16 33.6,15.9 33.6,16 	"/>
	<polygon fill="#99CCCC" points="33.5,15.9 33.5,16 33.5,16 33.5,15.9 33.5,15.9 33.4,15.9 33.4,15.9 33.4,15.9 	"/>
	<polygon fill="#99CCCC" points="33.5,16.1 33.6,16.1 33.6,16.1 33.6,16.1 33.5,16.1 	"/>
	<polygon fill="#99CCCC" points="33.2,15.8 33.3,15.8 33.2,15.8 33.2,15.8 33.2,15.7 33.2,15.8 	"/>
	<polygon fill="#99CCCC" points="14.3,5.6 14,5.6 13.7,5.6 14,5.5 13.8,5.5 13.8,5.5 13.9,5.4 14.1,5.4 13.9,5.4 13.8,5.3 13.8,5.2 
		14,5.3 14.1,5.4 14.2,5.5 14.2,5.5 14.2,5.6 14.3,5.6 14.4,5.5 14.4,5.4 14.3,5.3 14.2,5.1 14.1,5 14.3,5 14.4,5.1 14.6,5 
		14.7,4.8 14.7,4.6 14.7,4.4 14.6,4.4 14.6,4.3 14.8,4.3 14.8,4.2 14.7,4.2 14.8,4.1 14.7,4 14.7,3.9 14.8,3.7 15,3.6 14.8,3.5 
		14.8,3.6 14.8,3.6 14.8,3.5 15,3.5 15.1,3.4 15,3.4 14.8,3.4 14.9,3.4 15.1,3.4 15.2,3.3 15.2,3.3 15.3,3.2 15.4,3.1 15.2,3 
		15.1,3.1 15,3.2 14.9,3.2 14.9,3.1 14.8,3.1 14.8,3.2 14.6,3.3 14.5,3.4 14.7,3.2 14.8,3 14.7,3 14.6,3 14.6,3.1 14.4,3.1 
		14.4,3.1 14.5,3 14.5,3 14.2,3 14,3 14,3 14.2,2.9 14.5,2.9 14.6,2.9 14.7,2.9 14.7,2.9 14.8,2.9 14.9,2.8 14.7,2.7 14.7,2.7 
		14.6,2.6 14.4,2.6 14.2,2.7 13.9,2.7 14,2.6 14.2,2.6 14.4,2.6 14.5,2.6 14.6,2.5 14.4,2.5 14.1,2.4 13.8,2.4 13.5,2.4 13.4,2.4 
		13.5,2.5 13.6,2.6 13.7,2.7 13.7,2.7 13.6,2.7 13.4,2.6 13.5,2.8 13.5,2.8 13.4,2.7 13.3,2.8 13.3,2.9 13.3,2.9 13.2,2.7 13,2.6 
		13,2.7 13,2.8 13,2.8 12.8,2.7 12.8,2.6 12.4,2.7 12.5,2.9 12.5,2.9 12.4,2.8 12.4,2.7 12.3,2.7 12.2,2.8 12.2,2.9 12.1,2.8 
		12.1,2.8 12,2.9 12,2.9 12,2.8 11.9,2.9 11.8,2.9 11.7,3 11.6,3.1 11.6,3.1 11.7,3.1 11.7,3.2 11.8,3.1 11.8,3.1 11.8,3.1 
		11.7,3.2 11.8,3.2 11.7,3.2 11.7,3.3 11.6,3.4 11.5,3.3 11.4,3.3 11.3,3.4 11.3,3.4 11.2,3.4 11.1,3.4 11,3.4 10.9,3.5 11,3.6 
		11.1,3.6 11.1,3.7 11.1,3.7 11.1,3.7 11.3,3.7 11.3,3.7 11.3,3.8 11.1,3.7 11,3.7 10.9,3.8 11,3.8 11.1,3.8 11,3.9 11,3.9 
		11.1,3.9 11,3.9 11,4 11,4 11.1,4.1 11.1,4 11.2,4 11.2,4.1 11.4,4 11.5,4.1 11.7,4.2 11.7,4.4 11.8,4.9 11.6,5 11.6,5.1 11.8,5.2 
		11.9,5.4 11.6,5.3 11.8,5.4 11.8,5.6 11.7,5.7 11.6,5.7 11.5,5.9 11.5,6.2 11.5,6.6 11.6,7 11.7,7.1 11.9,7.1 12,7.3 12.1,7.3 
		12.3,7 12.4,6.7 12.5,6.6 12.5,6.5 12.6,6.3 12.7,6.3 12.8,6.3 12.8,6.1 12.9,6.2 12.8,6.2 12.9,6.2 13.1,6.1 13.3,6 13.4,5.9 
		13.4,5.8 13.5,5.9 13.7,5.9 13.9,5.8 14.2,5.7 	"/>
	<polygon fill="#99CCCC" points="31.4,20.4 31.4,20.4 31.4,20.4 31.3,20.4 31.2,20.4 31.2,20.3 31.1,20.3 31.1,20.4 31.2,20.6 
		31.1,20.6 31.1,20.6 31.1,20.7 31.1,20.8 31.2,20.8 31.2,20.8 31.2,20.8 31.2,20.8 31.2,20.9 31.2,20.8 31.3,20.8 31.3,20.8 
		31.3,20.7 31.4,20.7 31.4,20.8 31.3,20.8 31.3,20.8 31.4,20.8 31.4,20.7 31.4,20.7 31.4,20.6 31.5,20.6 31.5,20.6 31.5,20.4 
		31.5,20.4 	"/>
	<polygon fill="#99CCCC" points="22.1,17.3 22.1,17.3 22.1,17.3 22.1,17.3 	"/>
	<polygon fill="#99CCCC" points="33.9,17.6 34,17.7 34,17.7 34,17.7 34,17.7 34,17.6 33.9,17.6 33.9,17.5 33.9,17.5 33.9,17.4 
		33.8,17.4 33.9,17.5 	"/>
	<rect x="9.5" y="13.2" fill="#99CCCC" width="0" height="0"/>
	<polygon fill="#99CCCC" points="14.4,11.2 14.3,11.2 14.3,11.2 14.3,11.2 	"/>
	<polygon fill="#99CCCC" points="14.4,11.7 14.3,11.7 14.3,11.8 14.4,11.7 	"/>
	<polygon fill="#99CCCC" points="14.5,11.8 14.5,11.7 14.4,11.8 	"/>
	<polygon fill="#99CCCC" points="9.5,13 9.4,13.1 9.4,13.1 9.5,13.1 9.5,13.1 9.5,13.1 	"/>
	<polygon fill="#99CCCC" points="28,14.9 28,14.9 28,15 28,15 28,15 28,15.1 28.1,15.1 28.1,15.1 28.1,15.2 28.1,15.2 28.1,15.3 
		28.2,15.3 28.2,15.3 28.2,15.3 28.3,15.3 28.3,15.4 28.4,15.3 28.4,15.4 28.4,15.3 28.4,15.3 28.5,15.3 28.5,15.3 28.5,15.4 
		28.6,15.4 28.6,15.4 28.6,15.4 28.7,15.4 28.8,15.3 28.8,15.2 28.8,15.2 28.8,15.1 28.9,15.1 28.9,15 28.9,14.9 29,14.9 29.1,14.9 
		29.1,14.9 29.1,14.8 29,14.8 29,14.7 29,14.7 29,14.7 28.9,14.7 28.9,14.6 28.9,14.6 28.9,14.6 28.9,14.6 29,14.6 28.9,14.5 
		28.9,14.5 29,14.5 29,14.5 29,14.4 29,14.4 29,14.4 29.1,14.4 29.1,14.4 29.1,14.4 29.1,14.4 29,14.3 29,14.3 29,14.3 29,14.3 
		29,14.3 29,14.3 28.9,14.3 28.9,14.2 28.9,14.2 28.9,14.2 28.9,14.2 28.8,14.2 28.8,14.2 28.8,14.2 28.8,14.3 28.7,14.4 28.7,14.4 
		28.7,14.4 28.7,14.4 28.6,14.4 28.6,14.4 28.6,14.4 28.6,14.5 28.4,14.6 28.3,14.7 28.3,14.7 28.2,14.7 28.2,14.8 28.2,14.8 
		28.2,14.8 28.1,14.8 28.1,14.7 28,14.7 28,14.8 28,14.8 	"/>
	<polygon fill="#99CCCC" points="9.4,13.7 9.4,13.8 9.5,13.8 9.5,13.7 9.5,13.7 	"/>
	<polygon fill="#99CCCC" points="15.5,7.8 15.5,7.8 15.5,7.8 15.5,7.8 15.5,7.8 15.5,7.9 15.5,7.9 15.6,7.9 15.6,7.9 15.5,7.9 
		15.5,7.8 	"/>
	<polygon fill="#99CCCC" points="17.7,7.9 17.8,7.8 17.7,7.8 17.7,7.9 17.7,7.9 17.7,8 	"/>
	<polygon fill="#99CCCC" points="31.2,15.8 31.1,15.9 31.1,16 31.2,15.9 31.2,15.9 31.2,15.8 	"/>
	<polygon fill="#99CCCC" points="17,10.1 17,10.1 17.1,10.1 17.1,10 17.1,9.9 17.1,9.9 17,9.9 17,10 17,10 17,10 17,10 17,10.1 	"/>
</g>
</svg>
