<?xml version="1.0" encoding="utf-8"?>
<!-- Generator: Adobe Illustrator 17.1.0, SVG Export Plug-In . SVG Version: 6.00 Build 0)  -->
<!DOCTYPE svg PUBLIC "-//W3C//DTD SVG 1.1//EN" "http://www.w3.org/Graphics/SVG/1.1/DTD/svg11.dtd">
<svg version="1.1" id="Слой_1" xmlns="http://www.w3.org/2000/svg" xmlns:xlink="http://www.w3.org/1999/xlink" x="0px" y="0px"
	 viewBox="0 0 35 23" enable-background="new 0 0 35 23" xml:space="preserve">
<g>
	<g>
		<g>
			<rect x="-83" y="-5.4" fill="#B22234" width="8.9" height="0.5"/>
			<rect x="-83" y="-4.9" fill="#E5E5E5" width="8.9" height="0.5"/>
			<rect x="-83" y="-4.4" fill="#B22234" width="8.9" height="0.5"/>
			<rect x="-83" y="-4" fill="#E5E5E5" width="8.9" height="0.5"/>
		</g>
		<g>
			<rect x="-83" y="-3.5" fill="#B22234" width="8.9" height="0.5"/>
			<rect x="-83" y="-3" fill="#E5E5E5" width="8.9" height="0.5"/>
			<rect x="-83" y="-2.5" fill="#B22234" width="8.9" height="0.5"/>
			<rect x="-83" y="-2" fill="#E5E5E5" width="8.9" height="0.5"/>
		</g>
		<rect x="-83" y="-1.5" fill="#B22234" width="8.9" height="0.5"/>
		<rect x="-83" y="0.5" fill="#B22234" width="8.9" height="0.5"/>
		<rect x="-83" y="-1" fill="#E5E5E5" width="8.9" height="0.5"/>
		<rect x="-83" y="-0.5" fill="#B22234" width="8.9" height="0.5"/>
		<rect x="-83" y="0" fill="#E5E5E5" width="8.9" height="0.5"/>
	</g>
	<g>
		<rect x="-83" y="-5.4" fill="#3C3B6E" width="4.9" height="3.5"/>
		<g>
			<g>
				<polygon fill="#E5E5E5" points="-82.2,-5 -82.1,-4.8 -81.9,-4.8 -82.1,-4.7 -82,-4.6 -82.2,-4.7 -82.3,-4.6 -82.2,-4.7 
					-82.4,-4.8 -82.2,-4.8 				"/>
				<polygon fill="#E5E5E5" points="-81.3,-5 -81.3,-4.8 -81.1,-4.8 -81.3,-4.7 -81.2,-4.6 -81.3,-4.7 -81.5,-4.6 -81.4,-4.7 
					-81.6,-4.8 -81.4,-4.8 				"/>
				<polygon fill="#E5E5E5" points="-80.5,-5 -80.5,-4.8 -80.3,-4.8 -80.5,-4.7 -80.4,-4.6 -80.5,-4.7 -80.7,-4.6 -80.6,-4.7 
					-80.7,-4.8 -80.6,-4.8 				"/>
				<polygon fill="#E5E5E5" points="-79.7,-5 -79.7,-4.8 -79.5,-4.8 -79.7,-4.7 -79.6,-4.6 -79.7,-4.7 -79.9,-4.6 -79.8,-4.7 
					-79.9,-4.8 -79.8,-4.8 				"/>
				<polygon fill="#E5E5E5" points="-78.9,-5 -78.9,-4.8 -78.7,-4.8 -78.8,-4.7 -78.8,-4.6 -78.9,-4.7 -79.1,-4.6 -79,-4.7 
					-79.1,-4.8 -79,-4.8 				"/>
			</g>
			<g>
				<polygon fill="#E5E5E5" points="-82.2,-4.3 -82.1,-4.1 -81.9,-4.1 -82.1,-4 -82,-3.9 -82.2,-4 -82.3,-3.9 -82.2,-4 -82.4,-4.1 
					-82.2,-4.1 				"/>
				<polygon fill="#E5E5E5" points="-81.3,-4.3 -81.3,-4.1 -81.1,-4.1 -81.3,-4 -81.2,-3.9 -81.3,-4 -81.5,-3.9 -81.4,-4 
					-81.6,-4.1 -81.4,-4.1 				"/>
				<polygon fill="#E5E5E5" points="-80.5,-4.3 -80.5,-4.1 -80.3,-4.1 -80.5,-4 -80.4,-3.9 -80.5,-4 -80.7,-3.9 -80.6,-4 
					-80.7,-4.1 -80.6,-4.1 				"/>
				<polygon fill="#E5E5E5" points="-79.7,-4.3 -79.7,-4.1 -79.5,-4.1 -79.7,-4 -79.6,-3.9 -79.7,-4 -79.9,-3.9 -79.8,-4 
					-79.9,-4.1 -79.8,-4.1 				"/>
				<polygon fill="#E5E5E5" points="-78.9,-4.3 -78.9,-4.1 -78.7,-4.1 -78.8,-4 -78.8,-3.9 -78.9,-4 -79.1,-3.9 -79,-4 -79.1,-4.1 
					-79,-4.1 				"/>
			</g>
			<g>
				<polygon fill="#E5E5E5" points="-82.2,-3.6 -82.1,-3.4 -81.9,-3.4 -82.1,-3.3 -82,-3.2 -82.2,-3.3 -82.3,-3.2 -82.2,-3.3 
					-82.4,-3.4 -82.2,-3.4 				"/>
				<polygon fill="#E5E5E5" points="-81.3,-3.6 -81.3,-3.4 -81.1,-3.4 -81.3,-3.3 -81.2,-3.2 -81.3,-3.3 -81.5,-3.2 -81.4,-3.3 
					-81.6,-3.4 -81.4,-3.4 				"/>
				<polygon fill="#E5E5E5" points="-80.5,-3.6 -80.5,-3.4 -80.3,-3.4 -80.5,-3.3 -80.4,-3.2 -80.5,-3.3 -80.7,-3.2 -80.6,-3.3 
					-80.7,-3.4 -80.6,-3.4 				"/>
				<polygon fill="#E5E5E5" points="-79.7,-3.6 -79.7,-3.4 -79.5,-3.4 -79.7,-3.3 -79.6,-3.2 -79.7,-3.3 -79.9,-3.2 -79.8,-3.3 
					-79.9,-3.4 -79.8,-3.4 				"/>
				<polygon fill="#E5E5E5" points="-78.9,-3.6 -78.9,-3.4 -78.7,-3.4 -78.8,-3.3 -78.8,-3.2 -78.9,-3.3 -79.1,-3.2 -79,-3.3 
					-79.1,-3.4 -79,-3.4 				"/>
			</g>
			<g>
				<polygon fill="#E5E5E5" points="-82.2,-2.9 -82.1,-2.7 -81.9,-2.7 -82.1,-2.7 -82,-2.5 -82.2,-2.6 -82.3,-2.5 -82.2,-2.7 
					-82.4,-2.7 -82.2,-2.7 				"/>
				<polygon fill="#E5E5E5" points="-81.3,-2.9 -81.3,-2.7 -81.1,-2.7 -81.3,-2.7 -81.2,-2.5 -81.3,-2.6 -81.5,-2.5 -81.4,-2.7 
					-81.6,-2.7 -81.4,-2.7 				"/>
				<polygon fill="#E5E5E5" points="-80.5,-2.9 -80.5,-2.7 -80.3,-2.7 -80.5,-2.7 -80.4,-2.5 -80.5,-2.6 -80.7,-2.5 -80.6,-2.7 
					-80.7,-2.7 -80.6,-2.7 				"/>
				<polygon fill="#E5E5E5" points="-79.7,-2.9 -79.7,-2.7 -79.5,-2.7 -79.7,-2.7 -79.6,-2.5 -79.7,-2.6 -79.9,-2.5 -79.8,-2.7 
					-79.9,-2.7 -79.8,-2.7 				"/>
				<polygon fill="#E5E5E5" points="-78.9,-2.9 -78.9,-2.7 -78.7,-2.7 -78.8,-2.7 -78.8,-2.5 -78.9,-2.6 -79.1,-2.5 -79,-2.7 
					-79.1,-2.7 -79,-2.7 				"/>
			</g>
			<g>
				<polygon fill="#E5E5E5" points="-82.6,-5.3 -82.5,-5.2 -82.4,-5.2 -82.5,-5.1 -82.4,-4.9 -82.6,-5 -82.7,-4.9 -82.6,-5.1 
					-82.8,-5.2 -82.6,-5.2 				"/>
				<polygon fill="#E5E5E5" points="-81.8,-5.3 -81.7,-5.2 -81.6,-5.2 -81.7,-5.1 -81.6,-4.9 -81.8,-5 -81.9,-4.9 -81.8,-5.1 
					-82,-5.2 -81.8,-5.2 				"/>
				<polygon fill="#E5E5E5" points="-81,-5.3 -80.9,-5.2 -80.7,-5.2 -80.9,-5.1 -80.8,-4.9 -81,-5 -81.1,-4.9 -81,-5.1 -81.2,-5.2 
					-81,-5.2 				"/>
				<polygon fill="#E5E5E5" points="-80.1,-5.3 -80.1,-5.2 -79.9,-5.2 -80.1,-5.1 -80,-4.9 -80.1,-5 -80.3,-4.9 -80.2,-5.1 
					-80.3,-5.2 -80.2,-5.2 				"/>
				<polygon fill="#E5E5E5" points="-79.3,-5.3 -79.3,-5.2 -79.1,-5.2 -79.3,-5.1 -79.2,-4.9 -79.3,-5 -79.5,-4.9 -79.4,-5.1 
					-79.5,-5.2 -79.4,-5.2 				"/>
				<polygon fill="#E5E5E5" points="-78.5,-5.3 -78.5,-5.2 -78.3,-5.2 -78.5,-5.1 -78.4,-4.9 -78.5,-5 -78.7,-4.9 -78.6,-5.1 
					-78.7,-5.2 -78.6,-5.2 				"/>
			</g>
			<g>
				<polygon fill="#E5E5E5" points="-82.6,-4.6 -82.5,-4.5 -82.4,-4.5 -82.5,-4.4 -82.4,-4.2 -82.6,-4.3 -82.7,-4.2 -82.6,-4.4 
					-82.8,-4.5 -82.6,-4.5 				"/>
				<polygon fill="#E5E5E5" points="-81.8,-4.6 -81.7,-4.5 -81.6,-4.5 -81.7,-4.4 -81.6,-4.2 -81.8,-4.3 -81.9,-4.2 -81.8,-4.4 
					-82,-4.5 -81.8,-4.5 				"/>
				<polygon fill="#E5E5E5" points="-81,-4.6 -80.9,-4.5 -80.7,-4.5 -80.9,-4.4 -80.8,-4.2 -81,-4.3 -81.1,-4.2 -81,-4.4 
					-81.2,-4.5 -81,-4.5 				"/>
				<polygon fill="#E5E5E5" points="-80.1,-4.6 -80.1,-4.5 -79.9,-4.5 -80.1,-4.4 -80,-4.2 -80.1,-4.3 -80.3,-4.2 -80.2,-4.4 
					-80.3,-4.5 -80.2,-4.5 				"/>
				<polygon fill="#E5E5E5" points="-79.3,-4.6 -79.3,-4.5 -79.1,-4.5 -79.3,-4.4 -79.2,-4.2 -79.3,-4.3 -79.5,-4.2 -79.4,-4.4 
					-79.5,-4.5 -79.4,-4.5 				"/>
				<polygon fill="#E5E5E5" points="-78.5,-4.6 -78.5,-4.5 -78.3,-4.5 -78.5,-4.4 -78.4,-4.2 -78.5,-4.3 -78.7,-4.2 -78.6,-4.4 
					-78.7,-4.5 -78.6,-4.5 				"/>
			</g>
			<g>
				<polygon fill="#E5E5E5" points="-82.6,-3.9 -82.5,-3.8 -82.4,-3.8 -82.5,-3.7 -82.4,-3.5 -82.6,-3.6 -82.7,-3.5 -82.6,-3.7 
					-82.8,-3.8 -82.6,-3.8 				"/>
				<polygon fill="#E5E5E5" points="-81.8,-3.9 -81.7,-3.8 -81.6,-3.8 -81.7,-3.7 -81.6,-3.5 -81.8,-3.6 -81.9,-3.5 -81.8,-3.7 
					-82,-3.8 -81.8,-3.8 				"/>
				<polygon fill="#E5E5E5" points="-81,-3.9 -80.9,-3.8 -80.7,-3.8 -80.9,-3.7 -80.8,-3.5 -81,-3.6 -81.1,-3.5 -81,-3.7 
					-81.2,-3.8 -81,-3.8 				"/>
				<polygon fill="#E5E5E5" points="-80.1,-3.9 -80.1,-3.8 -79.9,-3.8 -80.1,-3.7 -80,-3.5 -80.1,-3.6 -80.3,-3.5 -80.2,-3.7 
					-80.3,-3.8 -80.2,-3.8 				"/>
				<polygon fill="#E5E5E5" points="-79.3,-3.9 -79.3,-3.8 -79.1,-3.8 -79.3,-3.7 -79.2,-3.5 -79.3,-3.6 -79.5,-3.5 -79.4,-3.7 
					-79.5,-3.8 -79.4,-3.8 				"/>
				<polygon fill="#E5E5E5" points="-78.5,-3.9 -78.5,-3.8 -78.3,-3.8 -78.5,-3.7 -78.4,-3.5 -78.5,-3.6 -78.7,-3.5 -78.6,-3.7 
					-78.7,-3.8 -78.6,-3.8 				"/>
			</g>
			<g>
				<polygon fill="#E5E5E5" points="-82.6,-3.2 -82.5,-3.1 -82.4,-3.1 -82.5,-3 -82.4,-2.9 -82.6,-2.9 -82.7,-2.9 -82.6,-3 
					-82.8,-3.1 -82.6,-3.1 				"/>
				<polygon fill="#E5E5E5" points="-81.8,-3.2 -81.7,-3.1 -81.6,-3.1 -81.7,-3 -81.6,-2.9 -81.8,-2.9 -81.9,-2.9 -81.8,-3 
					-82,-3.1 -81.8,-3.1 				"/>
				<polygon fill="#E5E5E5" points="-81,-3.2 -80.9,-3.1 -80.7,-3.1 -80.9,-3 -80.8,-2.9 -81,-2.9 -81.1,-2.9 -81,-3 -81.2,-3.1 
					-81,-3.1 				"/>
				<polygon fill="#E5E5E5" points="-80.1,-3.2 -80.1,-3.1 -79.9,-3.1 -80.1,-3 -80,-2.9 -80.1,-2.9 -80.3,-2.9 -80.2,-3 
					-80.3,-3.1 -80.2,-3.1 				"/>
				<polygon fill="#E5E5E5" points="-79.3,-3.2 -79.3,-3.1 -79.1,-3.1 -79.3,-3 -79.2,-2.9 -79.3,-2.9 -79.5,-2.9 -79.4,-3 
					-79.5,-3.1 -79.4,-3.1 				"/>
				<polygon fill="#E5E5E5" points="-78.5,-3.2 -78.5,-3.1 -78.3,-3.1 -78.5,-3 -78.4,-2.9 -78.5,-2.9 -78.7,-2.9 -78.6,-3 
					-78.7,-3.1 -78.6,-3.1 				"/>
			</g>
			<g>
				<polygon fill="#E5E5E5" points="-82.6,-2.5 -82.5,-2.4 -82.4,-2.4 -82.5,-2.3 -82.4,-2.2 -82.6,-2.3 -82.7,-2.2 -82.6,-2.3 
					-82.8,-2.4 -82.6,-2.4 				"/>
				<polygon fill="#E5E5E5" points="-81.8,-2.5 -81.7,-2.4 -81.6,-2.4 -81.7,-2.3 -81.6,-2.2 -81.8,-2.3 -81.9,-2.2 -81.8,-2.3 
					-82,-2.4 -81.8,-2.4 				"/>
				<polygon fill="#E5E5E5" points="-81,-2.5 -80.9,-2.4 -80.7,-2.4 -80.9,-2.3 -80.8,-2.2 -81,-2.3 -81.1,-2.2 -81,-2.3 
					-81.2,-2.4 -81,-2.4 				"/>
				<polygon fill="#E5E5E5" points="-80.1,-2.5 -80.1,-2.4 -79.9,-2.4 -80.1,-2.3 -80,-2.2 -80.1,-2.3 -80.3,-2.2 -80.2,-2.3 
					-80.3,-2.4 -80.2,-2.4 				"/>
				<polygon fill="#E5E5E5" points="-79.3,-2.5 -79.3,-2.4 -79.1,-2.4 -79.3,-2.3 -79.2,-2.2 -79.3,-2.3 -79.5,-2.2 -79.4,-2.3 
					-79.5,-2.4 -79.4,-2.4 				"/>
				<polygon fill="#E5E5E5" points="-78.5,-2.5 -78.5,-2.4 -78.3,-2.4 -78.5,-2.3 -78.4,-2.2 -78.5,-2.3 -78.7,-2.2 -78.6,-2.3 
					-78.7,-2.4 -78.6,-2.4 				"/>
			</g>
		</g>
	</g>
</g>
<g>
	<g>
		<rect fill="#CC020D" width="35" height="23"/>
	</g>
	<rect x="8.6" fill="#E5E5E5" width="17.9" height="23"/>
	<path fill="#CC020D" d="M22.9,13.7c1.1-1,2.4-2.2,2.4-2.2s-1-0.4-1-0.6C24.2,10.8,25,8,25,8s-2.2,0.6-2.4,0.5
		c-0.2-0.1-0.4-1.3-0.4-1.3s-1.8,2.5-2.2,2.3c-0.4-0.2,0.7-5,0.7-5s-1,0.7-1.4,0.7c-0.4,0-1.7-3-1.7-3s-1.2,3-1.7,3
		c-0.4,0-1.4-0.7-1.4-0.7s1.1,4.7,0.7,5c-0.4,0.2-2.2-2.3-2.2-2.3s-0.2,1.2-0.4,1.3C12.2,8.6,10,8,10,8s0.8,2.9,0.7,3
		c-0.1,0.2-1,0.6-1,0.6s1.3,1.1,2.4,2.2c0.8,0.7,1.5,1.3,1.5,1.6c0,0.3-0.3,1.4-0.3,1.4l3.9-0.5c0,0,0,0.1,0.1,0.1
		c0.1,0.1,0.1,0.1,0.1,0.1s-0.1,1.5-0.1,2s-0.1,2.4-0.1,2.4h0.2h0.1h0.4c0,0-0.1-1.8-0.1-2.4s-0.1-2-0.1-2s0,0,0.1-0.1
		c0.1-0.1,0.1-0.1,0.1-0.1l3.9,0.5c0,0-0.3-1.1-0.3-1.4C21.4,15.1,22.2,14.4,22.9,13.7z"/>
</g>
</svg>
