<?xml version="1.0" encoding="utf-8"?>
<!-- Generator: Adobe Illustrator 17.1.0, SVG Export Plug-In . SVG Version: 6.00 Build 0)  -->
<!DOCTYPE svg PUBLIC "-//W3C//DTD SVG 1.1//EN" "http://www.w3.org/Graphics/SVG/1.1/DTD/svg11.dtd">
<svg version="1.1" id="Слой_1" xmlns="http://www.w3.org/2000/svg" xmlns:xlink="http://www.w3.org/1999/xlink" x="0px" y="0px"
	 viewBox="0 0 35 23" enable-background="new 0 0 35 23" xml:space="preserve">
<g>
	<polygon fill="#012681" points="2.4,23 14.6,23 14.6,15.7 	"/>
	<polygon fill="#012681" points="33,0 20.3,0 20.3,7.6 	"/>
	<polygon fill="#012681" points="0,14 0,19.8 9.6,14 	"/>
	<polygon fill="#012681" points="0,3.8 0,8.8 8.2,8.8 	"/>
	<polygon fill="#012681" points="14.6,0 1.4,0 14.6,7.9 	"/>
	<polygon fill="#012681" points="20.3,23 31.9,23 20.3,16.1 	"/>
	<polygon fill="#012681" points="35,8.8 35,10 35,12.9 35,14 24.7,14 35,20.2 35,3.4 26.1,8.8 	"/>
	<polygon fill="#D2142E" points="13.1,14 0,21.9 0,23 0.4,23 14.6,14.5 14.6,14 	"/>
	<polygon fill="#D2142E" points="35,2.2 35,0.9 21.8,8.8 24.1,8.8 	"/>
	<polygon fill="#D2142E" points="0,1.3 0,2.6 10.2,8.8 12.5,8.8 	"/>
	<polygon fill="#D2142E" points="20.3,14 20.3,14.9 33.9,23 35,23 35,22.3 21.2,14 	"/>
	<polygon fill="#E5E5E5" points="35,0 33,0 20.3,7.6 20.3,0 19.1,0 19.1,8.4 19.1,10 19.9,10 22.2,10 24.1,10 35,10 35,8.8 
		26.1,8.8 35,3.4 35,2.2 24.1,8.8 21.8,8.8 35,0.9 	"/>
	<polygon fill="#E5E5E5" points="15,12.9 15,12.9 15,12.9 	"/>
	<polygon fill="#E5E5E5" points="19.3,12.9 19.3,12.9 19.3,12.9 	"/>
	<polygon fill="#E5E5E5" points="15,12.9 15,12.9 15,12.9 11.5,12.9 0,12.9 0,14 9.6,14 0,19.8 0,21.9 13.1,14 14.6,14 14.6,14.5 
		0.4,23 2.4,23 14.6,15.7 14.6,23 15.9,23 15.9,14.9 15.9,13.7 15.9,13.4 15.9,12.9 	"/>
	<polygon fill="#E5E5E5" points="14.6,0 14.6,7.9 1.4,0 0,0 0,1.3 12.5,8.8 10.2,8.8 0,2.6 0,3.8 8.2,8.8 0,8.8 0,10 10.2,10 
		12.2,10 14.4,10 15.9,10 15.9,8.7 15.9,0 	"/>
	<polygon fill="#E5E5E5" points="21.2,14 35,22.3 35,20.2 24.7,14 35,14 35,12.9 22.8,12.9 19.3,12.9 19.3,12.9 19.3,12.9 
		19.1,12.9 19.1,13 19.1,14.1 19.1,15.3 19.1,23 20.3,23 20.3,16.1 31.9,23 33.9,23 20.3,14.9 20.3,14 	"/>
	<polygon fill="#D2142E" points="24.1,10 22.2,10 19.9,10 19.1,10 19.1,8.4 19.1,0 15.9,0 15.9,8.7 15.9,10 14.4,10 12.2,10 
		10.2,10 0,10 0,12.9 11.5,12.9 15,12.9 15,12.9 15.9,12.9 15.9,13.4 15.9,13.7 15.9,14.9 15.9,23 19.1,23 19.1,15.3 19.1,14.1 
		19.1,13 19.1,12.9 19.3,12.9 19.3,12.9 22.8,12.9 35,12.9 35,10 	"/>
</g>
</svg>
