<svg xmlns="http://www.w3.org/2000/svg" width="160" height="40" viewBox="0 0 160 40"><g fill="none" fill-rule="evenodd"><path fill="#303032" d="M152.471 29.818v.227c0 .73.185 1.325.555 1.783.375.459.858.683 1.45.683.56 0 1.023-.167 1.378-.512.355-.341.535-.778.535-1.306 0-.493-.128-.9-.39-1.214-.263-.313-.731-.632-1.405-.958a90.058 90.058 0 0 0-1.687-.708c-.744-.298-1.223-.534-1.433-.705-.613-.503-1.06-1.063-1.354-1.682-.292-.617-.436-1.325-.436-2.12 0-1.397.489-2.573 1.47-3.54.977-.96 2.164-1.445 3.559-1.445 1.475 0 2.642.427 3.502 1.28.858.854 1.325 2.052 1.407 3.589h-3.466v-.091c0-.532-.139-.946-.41-1.25-.277-.303-.663-.452-1.152-.452a1.46 1.46 0 0 0-1.08.44c-.283.3-.426.67-.426 1.113 0 .724.74 1.391 2.226 2.02.39.158.693.282.906.373 1.422.645 2.4 1.335 2.925 2.075.518.733.78 1.732.78 2.987 0 1.547-.523 2.821-1.566 3.836-1.045 1.006-2.36 1.511-3.945 1.511-1.598 0-2.883-.53-3.867-1.593-.977-1.066-1.511-2.511-1.604-4.326l3.528-.015zm-18.213-1.569c.13 1.192.607 2.14 1.425 2.824.818.69 1.876 1.034 3.173 1.034.858 0 1.634-.18 2.324-.54a4.188 4.188 0 0 0 1.635-1.522h4.159c-.703 1.805-1.753 3.206-3.157 4.212-1.398.996-3.018 1.495-4.859 1.495-1.234 0-2.37-.218-3.408-.654a8.426 8.426 0 0 1-2.798-1.938 8.783 8.783 0 0 1-1.82-2.824 8.7 8.7 0 0 1-.647-3.288c0-1.158.2-2.242.596-3.26a8.313 8.313 0 0 1 1.754-2.751 8.951 8.951 0 0 1 2.863-2.063 7.87 7.87 0 0 1 3.296-.725 8.52 8.52 0 0 1 4.02.977c1.245.653 2.304 1.574 3.178 2.756a7.425 7.425 0 0 1 1.183 2.397c.256.882.386 1.897.386 3.042 0 .088-.005.227-.016.414-.01.19-.016.322-.016.414h-13.27zm9.143-3.057c-.33-1.107-.886-1.945-1.666-2.527-.777-.575-1.758-.863-2.94-.863-1.03 0-1.944.313-2.758.936-.817.623-1.361 1.439-1.644 2.454h9.008zm-19.339 10.121h3.765v-16.57h-3.765v16.57zm-8.271 0V22.178h-2.53v-3.435h2.53V13.38h3.856v5.363h2.545v3.435h-2.545v13.135h-3.856zm-9.446 0V22.178h-2.529v-3.435h2.529V13.38h3.857v5.363h2.545v3.435h-2.545v13.135h-3.857zm-20.979-8.36c0-1.16.217-2.27.644-3.32a8.357 8.357 0 0 1 1.856-2.792 8.95 8.95 0 0 1 2.817-1.924 8.178 8.178 0 0 1 3.256-.668c1.191 0 2.297.2 3.305.597a8.712 8.712 0 0 1 2.783 1.783 8.81 8.81 0 0 1 1.998 2.887 8.291 8.291 0 0 1 .71 3.351c0 1.265-.206 2.416-.616 3.46a8.428 8.428 0 0 1-1.852 2.833 8.324 8.324 0 0 1-2.817 1.938c-1.054.436-2.2.654-3.434.654-1.25 0-2.38-.221-3.404-.664-1.029-.442-1.96-1.106-2.803-1.992a8.964 8.964 0 0 1-1.824-2.852 8.847 8.847 0 0 1-.619-3.291zm3.975-.029c0 1.537.422 2.754 1.265 3.655.844.899 1.99 1.347 3.435 1.347 1.43 0 2.566-.458 3.413-1.378.85-.92 1.276-2.16 1.276-3.712 0-1.398-.442-2.546-1.33-3.447-.89-.898-2.012-1.347-3.359-1.347-1.383 0-2.514.455-3.387 1.363-.875.91-1.313 2.083-1.313 3.52zm-17.846-.531v8.92H67.2V13.38h4.294v8.883h7.05V13.38h4.292v21.933h-4.292v-8.92h-7.05zm-24.017.655c0-2.435.834-4.51 2.5-6.24 1.665-1.725 3.64-2.59 5.922-2.59 2.396 0 4.443.849 6.134 2.545 1.692 1.697 2.541 3.723 2.541 6.073 0 2.469-.829 4.575-2.484 6.324-1.661 1.748-3.666 2.624-6.026 2.624-2.4 0-4.433-.86-6.093-2.574-1.66-1.71-2.494-3.762-2.494-6.162zm2.232-.038c0 1.913.607 3.512 1.82 4.802 1.218 1.29 2.724 1.936 4.535 1.936 1.774 0 3.265-.645 4.473-1.936 1.203-1.29 1.805-2.899 1.805-4.828 0-1.957-.612-3.566-1.83-4.828-1.22-1.258-2.766-1.89-4.644-1.89-1.686 0-3.135.647-4.344 1.944-1.208 1.293-1.815 2.893-1.815 4.8zm-6.885 8.303h2.124V13.38h-2.124v21.933zm-5.589 0h2.124V13.38h-2.124v21.933zm-4.823-9.404c-.4-1.859-1.141-3.263-2.216-4.205-1.074-.94-2.473-1.407-4.2-1.407-1.605 0-2.968.503-4.083 1.515-1.116 1.014-1.794 2.377-2.047 4.097h12.546zm2.35 1.796H19.806c.128 1.806.781 3.26 1.958 4.376 1.173 1.11 2.638 1.667 4.396 1.667 1.245 0 2.366-.326 3.358-.968.993-.648 1.764-1.543 2.304-2.694h2.41c-.76 1.834-1.834 3.238-3.213 4.222-1.382.98-2.981 1.476-4.796 1.476-2.412 0-4.453-.86-6.118-2.577-1.666-1.717-2.5-3.785-2.5-6.191 0-2.523.818-4.607 2.447-6.253 1.63-1.65 3.718-2.472 6.258-2.472 2.494 0 4.525.859 6.092 2.57 1.574 1.719 2.36 3.948 2.36 6.696v.148zM2.17 35.313H0V13.38h2.17v9.836h10.422V13.38h2.155v21.933h-2.155V25.309H2.17v10.004z"/><path fill="#F26253" d="M124.017 16.665c-3.797-1.964-2.807-5.396.34-6.512.757-.268 2.26-.506 2.902-1.644.583-2.819-2.912-1.61-2.912-4.509.767 2.86 6.362.988 4.726 6.266-.415 1.345-2.149 2.11-1.784 3.537.32 1.253 1.57 1.142 2.432.55.801-.549 1.315-1.826.12-2.394 2.068 0 2.683 3.882-1.289 4.867-1.065.265-3.805.216-4.535-.16"/></g></svg>