<?xml version="1.0" encoding="utf-8"?>
<!-- Generator: Adobe Illustrator 17.1.0, SVG Export Plug-In . SVG Version: 6.00 Build 0)  -->
<!DOCTYPE svg PUBLIC "-//W3C//DTD SVG 1.1//EN" "http://www.w3.org/Graphics/SVG/1.1/DTD/svg11.dtd">
<svg version="1.1" id="Layer_1" xmlns="http://www.w3.org/2000/svg" xmlns:xlink="http://www.w3.org/1999/xlink" x="0px" y="0px"
	 viewBox="0 0 35 23" enable-background="new 0 0 35 23" xml:space="preserve">
<g>
	<g>
		<rect y="0" fill="#012681" width="35" height="23"/>
		<g>
			<polygon fill="#012681" points="1.1,11.5 6.7,11.5 6.7,7.9 			"/>
			<polygon fill="#012681" points="15.1,0 9.3,0 9.3,3.8 			"/>
			<polygon fill="#012681" points="0,7 0,9.9 4.4,7 			"/>
			<polygon fill="#012681" points="0,1.9 0,4.4 3.8,4.4 			"/>
			<polygon fill="#012681" points="6.7,0 0.6,0 6.7,4 			"/>
			<polygon fill="#012681" points="9.3,11.5 14.6,11.5 9.3,8.1 			"/>
			<polygon fill="#012681" points="16,4.4 16,5 16,6.5 16,7 11.3,7 16,10.1 16,1.7 11.9,4.4 			"/>
			<polygon fill="#D2142E" points="6,7 0,11 0,11.5 0.2,11.5 6.7,7.3 6.7,7 			"/>
			<polygon fill="#D2142E" points="16,1.1 16,0.4 10,4.4 11,4.4 			"/>
			<polygon fill="#D2142E" points="0,0.6 0,1.3 4.7,4.4 5.7,4.4 			"/>
			<polygon fill="#D2142E" points="9.3,7 9.3,7.5 15.5,11.5 16,11.5 16,11.2 9.7,7 			"/>
			<polygon fill="#E5E5E5" points="16,0 15.1,0 9.3,3.8 9.3,0 8.7,0 8.7,4.2 8.7,5 9.1,5 10.1,5 11,5 16,5 16,4.4 11.9,4.4 16,1.7 
				16,1.1 11,4.4 10,4.4 16,0.4 			"/>
			<polygon fill="#E5E5E5" points="6.9,6.5 6.9,6.5 6.9,6.5 			"/>
			<polygon fill="#E5E5E5" points="8.8,6.5 8.8,6.5 8.8,6.5 			"/>
			<polygon fill="#E5E5E5" points="6.9,6.5 6.9,6.5 6.9,6.5 5.3,6.5 0,6.5 0,7 4.4,7 0,9.9 0,11 6,7 6.7,7 6.7,7.3 0.2,11.5 
				1.1,11.5 6.7,7.9 6.7,11.5 7.3,11.5 7.3,7.5 7.3,6.9 7.3,6.7 7.3,6.5 			"/>
			<polygon fill="#E5E5E5" points="6.7,0 6.7,4 0.6,0 0,0 0,0.6 5.7,4.4 4.7,4.4 0,1.3 0,1.9 3.8,4.4 0,4.4 0,5 4.7,5 5.6,5 6.6,5 
				7.3,5 7.3,4.4 7.3,0 			"/>
			<polygon fill="#E5E5E5" points="9.7,7 16,11.2 16,10.1 11.3,7 16,7 16,6.5 10.4,6.5 8.8,6.5 8.8,6.5 8.8,6.5 8.7,6.5 8.7,6.5 
				8.7,7.1 8.7,7.7 8.7,11.5 9.3,11.5 9.3,8.1 14.6,11.5 15.5,11.5 9.3,7.5 9.3,7 			"/>
			<polygon fill="#D2142E" points="11,5 10.1,5 9.1,5 8.7,5 8.7,4.2 8.7,0 7.3,0 7.3,4.4 7.3,5 6.6,5 5.6,5 4.7,5 0,5 0,6.5 
				5.3,6.5 6.9,6.5 6.9,6.5 7.3,6.5 7.3,6.7 7.3,6.9 7.3,7.5 7.3,11.5 8.7,11.5 8.7,7.7 8.7,7.1 8.7,6.5 8.7,6.5 8.8,6.5 8.8,6.5 
				10.4,6.5 16,6.5 16,5 			"/>
		</g>
		<g>
			<polygon fill="#CC142B" points="27.2,16.8 26.1,16.8 25.8,15.7 25.4,16.8 24.3,16.8 25.2,17.5 24.8,18.5 25.7,17.9 26.7,18.6 
				26.3,17.5 			"/>
			<path fill="#E5E5E5" d="M27.7,16.7l-1.5,0l-0.5-1.4l-0.5,1.4l-1.5,0l1.2,0.9l-0.5,1.4l1.2-0.9l1.2,0.9l-0.5-1.4L27.7,16.7z
				 M25.7,17.9l-0.9,0.7l0.4-1.1l-0.9-0.7l1.1,0l0.4-1.1l0.3,1.1l1.1,0l-0.9,0.7l0.3,1.1L25.7,17.9z"/>
		</g>
		<g>
			<polygon fill="#CC142B" points="23.8,10.7 22.8,10.7 22.5,9.8 22.2,10.7 21.2,10.7 22,11.3 21.6,12.2 22.5,11.7 23.3,12.3 
				23,11.3 			"/>
			<path fill="#E5E5E5" d="M24.2,10.6l-1.3,0l-0.4-1.3l-0.4,1.3l-1.3,0l1.1,0.8l-0.4,1.3l1.1-0.8l1.1,0.8l-0.4-1.3L24.2,10.6z
				 M22.5,11.7l-0.8,0.6l0.3-1l-0.8-0.6l1,0l0.3-1l0.3,1l1,0L23,11.3l0.3,1L22.5,11.7z"/>
		</g>
		<g>
			<polygon fill="#CC142B" points="27.4,5.5 26.5,5.5 26.2,4.6 26,5.5 25.1,5.5 25.8,6 25.5,6.8 26.2,6.3 26.9,6.8 26.7,6 			"/>
			<path fill="#E5E5E5" d="M27.7,5.4l-1.1,0l-0.3-1.1l-0.4,1.1l-1.1,0L25.6,6l-0.4,1.1l0.9-0.7l0.9,0.7L26.8,6L27.7,5.4z M26.2,6.3
				l-0.7,0.5L25.8,6l-0.7-0.5l0.9,0l0.3-0.8l0.3,0.8l0.9,0L26.7,6l0.3,0.8L26.2,6.3z"/>
		</g>
		<g>
			<polygon fill="#CC142B" points="31.4,8.8 30.6,8.8 30.3,8 30.1,8.8 29.3,8.8 29.9,9.3 29.7,10 30.3,9.6 31,10 30.7,9.3 			"/>
			<path fill="#FCFCFC" d="M31.7,8.7l-1.1,0l-0.3-1l-0.3,1l-1.1,0l0.9,0.6l-0.3,1l0.9-0.6l0.9,0.6l-0.3-1L31.7,8.7z M30.3,9.6
				L29.7,10l0.3-0.8l-0.6-0.5l0.8,0L30.3,8l0.2,0.8l0.8,0l-0.7,0.5L31,10L30.3,9.6z"/>
		</g>
	</g>
</g>
</svg>
