<?xml version="1.0" encoding="utf-8"?>
<!-- Generator: Adobe Illustrator 17.1.0, SVG Export Plug-In . SVG Version: 6.00 Build 0)  -->
<!DOCTYPE svg PUBLIC "-//W3C//DTD SVG 1.1//EN" "http://www.w3.org/Graphics/SVG/1.1/DTD/svg11.dtd">
<svg version="1.1" id="Слой_1" xmlns="http://www.w3.org/2000/svg" xmlns:xlink="http://www.w3.org/1999/xlink" x="0px" y="0px"
	 viewBox="0 0 35 23" enable-background="new 0 0 35 23" xml:space="preserve">
<g>
	<g>
		<g>
			<rect x="0" y="0.2" fill="#B22234" width="35" height="1.8"/>
			<rect x="0" y="1.9" fill="#E5E5E5" width="35" height="1.8"/>
			<rect x="0" y="3.7" fill="#B22234" width="35" height="1.8"/>
			<rect x="0" y="5.4" fill="#E5E5E5" width="35" height="1.8"/>
		</g>
		<g>
			<rect x="0" y="7.2" fill="#B22234" width="35" height="1.8"/>
			<rect x="0" y="8.9" fill="#E5E5E5" width="35" height="1.8"/>
			<rect x="0" y="10.7" fill="#B22234" width="35" height="1.8"/>
			<rect x="0" y="12.5" fill="#E5E5E5" width="35" height="1.8"/>
		</g>
		<rect x="0" y="14.2" fill="#B22234" width="35" height="1.8"/>
		<rect x="0" y="21.2" fill="#B22234" width="35" height="1.8"/>
		<rect x="0" y="16" fill="#E5E5E5" width="35" height="1.8"/>
		<rect x="0" y="17.7" fill="#B22234" width="35" height="1.8"/>
		<rect x="0" y="19.5" fill="#E5E5E5" width="35" height="1.8"/>
	</g>
	<g>
		<rect x="0" y="0.2" fill="#3C3B6E" width="19.2" height="12.3"/>
		<g>
			<g>
				<polygon fill="#E5E5E5" points="3.3,1.8 3.5,2.3 4.1,2.3 3.6,2.7 3.8,3.2 3.3,2.9 2.8,3.2 3,2.7 2.5,2.3 3.1,2.3 				"/>
				<polygon fill="#E5E5E5" points="6.5,1.8 6.7,2.3 7.3,2.3 6.8,2.7 7,3.2 6.5,2.9 6,3.2 6.2,2.7 5.7,2.3 6.3,2.3 				"/>
				<polygon fill="#E5E5E5" points="9.6,1.8 9.8,2.3 10.4,2.3 10,2.7 10.1,3.2 9.6,2.9 9.1,3.2 9.3,2.7 8.8,2.3 9.5,2.3 				"/>
				<polygon fill="#E5E5E5" points="12.8,1.8 13,2.3 13.6,2.3 13.1,2.7 13.3,3.2 12.8,2.9 12.3,3.2 12.5,2.7 12,2.3 12.6,2.3 				
					"/>
				<polygon fill="#E5E5E5" points="16,1.8 16.2,2.3 16.8,2.3 16.3,2.7 16.5,3.2 16,2.9 15.5,3.2 15.7,2.7 15.2,2.3 15.8,2.3 				
					"/>
			</g>
			<g>
				<polygon fill="#E5E5E5" points="3.3,4.3 3.5,4.8 4.1,4.8 3.6,5.1 3.8,5.7 3.3,5.3 2.8,5.7 3,5.1 2.5,4.8 3.1,4.8 				"/>
				<polygon fill="#E5E5E5" points="6.5,4.3 6.7,4.8 7.3,4.8 6.8,5.1 7,5.7 6.5,5.3 6,5.7 6.2,5.1 5.7,4.8 6.3,4.8 				"/>
				<polygon fill="#E5E5E5" points="9.6,4.3 9.8,4.8 10.4,4.8 10,5.1 10.1,5.7 9.6,5.3 9.1,5.7 9.3,5.1 8.8,4.8 9.5,4.8 				"/>
				<polygon fill="#E5E5E5" points="12.8,4.3 13,4.8 13.6,4.8 13.1,5.1 13.3,5.7 12.8,5.3 12.3,5.7 12.5,5.1 12,4.8 12.6,4.8 				
					"/>
				<polygon fill="#E5E5E5" points="16,4.3 16.2,4.8 16.8,4.8 16.3,5.1 16.5,5.7 16,5.3 15.5,5.7 15.7,5.1 15.2,4.8 15.8,4.8 				
					"/>
			</g>
			<g>
				<polygon fill="#E5E5E5" points="3.3,6.7 3.5,7.3 4.1,7.3 3.6,7.6 3.8,8.1 3.3,7.8 2.8,8.1 3,7.6 2.5,7.3 3.1,7.3 				"/>
				<polygon fill="#E5E5E5" points="6.5,6.7 6.7,7.3 7.3,7.3 6.8,7.6 7,8.1 6.5,7.8 6,8.1 6.2,7.6 5.7,7.3 6.3,7.3 				"/>
				<polygon fill="#E5E5E5" points="9.6,6.7 9.8,7.3 10.4,7.3 10,7.6 10.1,8.1 9.6,7.8 9.1,8.1 9.3,7.6 8.8,7.3 9.5,7.3 				"/>
				<polygon fill="#E5E5E5" points="12.8,6.7 13,7.3 13.6,7.3 13.1,7.6 13.3,8.1 12.8,7.8 12.3,8.1 12.5,7.6 12,7.3 12.6,7.3 				
					"/>
				<polygon fill="#E5E5E5" points="16,6.7 16.2,7.3 16.8,7.3 16.3,7.6 16.5,8.1 16,7.8 15.5,8.1 15.7,7.6 15.2,7.3 15.8,7.3 				
					"/>
			</g>
			<g>
				<polygon fill="#E5E5E5" points="3.3,9.2 3.5,9.7 4.1,9.7 3.6,10 3.8,10.6 3.3,10.2 2.8,10.6 3,10 2.5,9.7 3.1,9.7 				"/>
				<polygon fill="#E5E5E5" points="6.5,9.2 6.7,9.7 7.3,9.7 6.8,10 7,10.6 6.5,10.2 6,10.6 6.2,10 5.7,9.7 6.3,9.7 				"/>
				<polygon fill="#E5E5E5" points="9.6,9.2 9.8,9.7 10.4,9.7 10,10 10.1,10.6 9.6,10.2 9.1,10.6 9.3,10 8.8,9.7 9.5,9.7 				"/>
				<polygon fill="#E5E5E5" points="12.8,9.2 13,9.7 13.6,9.7 13.1,10 13.3,10.6 12.8,10.2 12.3,10.6 12.5,10 12,9.7 12.6,9.7 				
					"/>
				<polygon fill="#E5E5E5" points="16,9.2 16.2,9.7 16.8,9.7 16.3,10 16.5,10.6 16,10.2 15.5,10.6 15.7,10 15.2,9.7 15.8,9.7 				
					"/>
			</g>
			<g>
				<polygon fill="#E5E5E5" points="1.7,0.6 1.9,1.1 2.5,1.1 2,1.4 2.2,2 1.7,1.6 1.2,2 1.4,1.4 0.9,1.1 1.5,1.1 				"/>
				<polygon fill="#E5E5E5" points="4.9,0.6 5.1,1.1 5.7,1.1 5.2,1.4 5.4,2 4.9,1.6 4.4,2 4.6,1.4 4.1,1.1 4.7,1.1 				"/>
				<polygon fill="#E5E5E5" points="8,0.6 8.2,1.1 8.8,1.1 8.3,1.4 8.5,2 8,1.6 7.5,2 7.7,1.4 7.2,1.1 7.8,1.1 				"/>
				<polygon fill="#E5E5E5" points="11.2,0.6 11.4,1.1 12,1.1 11.5,1.4 11.7,2 11.2,1.6 10.7,2 10.9,1.4 10.4,1.1 11,1.1 				"/>
				<polygon fill="#E5E5E5" points="14.4,0.6 14.6,1.1 15.2,1.1 14.7,1.4 14.9,2 14.4,1.6 13.9,2 14.1,1.4 13.6,1.1 14.2,1.1 				
					"/>
				<polygon fill="#E5E5E5" points="17.5,0.6 17.7,1.1 18.3,1.1 17.8,1.4 18,2 17.5,1.6 17,2 17.2,1.4 16.7,1.1 17.3,1.1 				"/>
			</g>
			<g>
				<polygon fill="#E5E5E5" points="1.7,3 1.9,3.6 2.5,3.6 2,3.9 2.2,4.4 1.7,4.1 1.2,4.4 1.4,3.9 0.9,3.6 1.5,3.6 				"/>
				<polygon fill="#E5E5E5" points="4.9,3 5.1,3.6 5.7,3.6 5.2,3.9 5.4,4.4 4.9,4.1 4.4,4.4 4.6,3.9 4.1,3.6 4.7,3.6 				"/>
				<polygon fill="#E5E5E5" points="8,3 8.2,3.6 8.8,3.6 8.3,3.9 8.5,4.4 8,4.1 7.5,4.4 7.7,3.9 7.2,3.6 7.8,3.6 				"/>
				<polygon fill="#E5E5E5" points="11.2,3 11.4,3.6 12,3.6 11.5,3.9 11.7,4.4 11.2,4.1 10.7,4.4 10.9,3.9 10.4,3.6 11,3.6 				"/>
				<polygon fill="#E5E5E5" points="14.4,3 14.6,3.6 15.2,3.6 14.7,3.9 14.9,4.4 14.4,4.1 13.9,4.4 14.1,3.9 13.6,3.6 14.2,3.6 				
					"/>
				<polygon fill="#E5E5E5" points="17.5,3 17.7,3.6 18.3,3.6 17.8,3.9 18,4.4 17.5,4.1 17,4.4 17.2,3.9 16.7,3.6 17.3,3.6 				"/>
			</g>
			<g>
				<polygon fill="#E5E5E5" points="1.7,5.5 1.9,6 2.5,6 2,6.4 2.2,6.9 1.7,6.6 1.2,6.9 1.4,6.4 0.9,6 1.5,6 				"/>
				<polygon fill="#E5E5E5" points="4.9,5.5 5.1,6 5.7,6 5.2,6.4 5.4,6.9 4.9,6.6 4.4,6.9 4.6,6.4 4.1,6 4.7,6 				"/>
				<polygon fill="#E5E5E5" points="8,5.5 8.2,6 8.8,6 8.3,6.4 8.5,6.9 8,6.6 7.5,6.9 7.7,6.4 7.2,6 7.8,6 				"/>
				<polygon fill="#E5E5E5" points="11.2,5.5 11.4,6 12,6 11.5,6.4 11.7,6.9 11.2,6.6 10.7,6.9 10.9,6.4 10.4,6 11,6 				"/>
				<polygon fill="#E5E5E5" points="14.4,5.5 14.6,6 15.2,6 14.7,6.4 14.9,6.9 14.4,6.6 13.9,6.9 14.1,6.4 13.6,6 14.2,6 				"/>
				<polygon fill="#E5E5E5" points="17.5,5.5 17.7,6 18.3,6 17.8,6.4 18,6.9 17.5,6.6 17,6.9 17.2,6.4 16.7,6 17.3,6 				"/>
			</g>
			<g>
				<polygon fill="#E5E5E5" points="1.7,8 1.9,8.5 2.5,8.5 2,8.8 2.2,9.3 1.7,9 1.2,9.3 1.4,8.8 0.9,8.5 1.5,8.5 				"/>
				<polygon fill="#E5E5E5" points="4.9,8 5.1,8.5 5.7,8.5 5.2,8.8 5.4,9.3 4.9,9 4.4,9.3 4.6,8.8 4.1,8.5 4.7,8.5 				"/>
				<polygon fill="#E5E5E5" points="8,8 8.2,8.5 8.8,8.5 8.3,8.8 8.5,9.3 8,9 7.5,9.3 7.7,8.8 7.2,8.5 7.8,8.5 				"/>
				<polygon fill="#E5E5E5" points="11.2,8 11.4,8.5 12,8.5 11.5,8.8 11.7,9.3 11.2,9 10.7,9.3 10.9,8.8 10.4,8.5 11,8.5 				"/>
				<polygon fill="#E5E5E5" points="14.4,8 14.6,8.5 15.2,8.5 14.7,8.8 14.9,9.3 14.4,9 13.9,9.3 14.1,8.8 13.6,8.5 14.2,8.5 				
					"/>
				<polygon fill="#E5E5E5" points="17.5,8 17.7,8.5 18.3,8.5 17.8,8.8 18,9.3 17.5,9 17,9.3 17.2,8.8 16.7,8.5 17.3,8.5 				"/>
			</g>
			<g>
				<polygon fill="#E5E5E5" points="1.7,10.4 1.9,10.9 2.5,10.9 2,11.3 2.2,11.8 1.7,11.5 1.2,11.8 1.4,11.3 0.9,10.9 1.5,10.9 				
					"/>
				<polygon fill="#E5E5E5" points="4.9,10.4 5.1,10.9 5.7,10.9 5.2,11.3 5.4,11.8 4.9,11.5 4.4,11.8 4.6,11.3 4.1,10.9 4.7,10.9 
									"/>
				<polygon fill="#E5E5E5" points="8,10.4 8.2,10.9 8.8,10.9 8.3,11.3 8.5,11.8 8,11.5 7.5,11.8 7.7,11.3 7.2,10.9 7.8,10.9 				
					"/>
				<polygon fill="#E5E5E5" points="11.2,10.4 11.4,10.9 12,10.9 11.5,11.3 11.7,11.8 11.2,11.5 10.7,11.8 10.9,11.3 10.4,10.9 
					11,10.9 				"/>
				<polygon fill="#E5E5E5" points="14.4,10.4 14.6,10.9 15.2,10.9 14.7,11.3 14.9,11.8 14.4,11.5 13.9,11.8 14.1,11.3 13.6,10.9 
					14.2,10.9 				"/>
				<polygon fill="#E5E5E5" points="17.5,10.4 17.7,10.9 18.3,10.9 17.8,11.3 18,11.8 17.5,11.5 17,11.8 17.2,11.3 16.7,10.9 
					17.3,10.9 				"/>
			</g>
		</g>
	</g>
</g>
</svg>
